<?xml version="1.0" encoding="utf-8"?>
<!-- Generator: Adobe Illustrator 19.2.1, SVG Export Plug-In . SVG Version: 6.00 Build 0)  -->
<!DOCTYPE svg PUBLIC "-//W3C//DTD SVG 1.1//EN" "http://www.w3.org/Graphics/SVG/1.1/DTD/svg11.dtd">
<svg version="1.1" id="Layer_1" xmlns="http://www.w3.org/2000/svg" xmlns:xlink="http://www.w3.org/1999/xlink" x="0px" y="0px"
	 width="780px" height="875px" viewBox="0 0 780 875" enable-background="new 0 0 780 875" xml:space="preserve">
<title>Artboard 1</title>
<desc>Created with Sketch.</desc>
<path id="Icon" d="M292.759,783.369c-0.399-0.493-1.144-0.492-1.542,0.002l-3.492,4.34c-0.529,0.657-0.066,1.64,0.772,1.64h0.469
	c0.55,0,0.995,0.45,0.995,1.005v25.639c0,0.555,0.445,1.005,0.995,1.005h1.99c0.549,0,0.995-0.45,0.995-1.005v-25.639
	c0-0.555,0.445-1.005,0.995-1.005h0.567c0.84,0,1.302-0.986,0.77-1.642L292.759,783.369z M311.503,810.649h-0.469
	c-0.55,0-0.995-0.45-0.995-1.005v-25.639c0-0.555-0.445-1.005-0.995-1.005h-1.99c-0.549,0-0.995,0.45-0.995,1.005v25.639
	c0,0.555-0.445,1.005-0.995,1.005h-0.567c-0.84,0-1.302,0.986-0.77,1.642l3.514,4.34c0.399,0.493,1.144,0.492,1.542-0.002
	l3.492-4.34C312.804,811.632,312.341,810.649,311.503,810.649z"/>
<path id="Icon_1_" fill="#1D1D1B" d="M233.708,808.12l-5.98-5.972c-0.271-0.271-0.354-0.668-0.236-1.033
	c1.765-5.436,0.084-11.76-5.052-15.525c-3.868-2.835-8.993-3.312-13.468-1.582c-1.206,0.466-1.508,2.041-0.594,2.954l6.169,6.161
	c0.256,0.255,0.355,0.627,0.262,0.975l-0.524,1.953c-0.094,0.349-0.366,0.621-0.716,0.715l-1.955,0.523
	c-0.349,0.093-0.722-0.006-0.977-0.262l-6.17-6.16c-0.914-0.913-2.491-0.611-2.957,0.593c-1.733,4.469-1.255,9.587,1.584,13.45
	c3.77,5.129,10.103,6.807,15.547,5.045c0.365-0.119,0.763-0.036,1.034,0.235l6.153,6.144c2.354,2.351,6.257,2.213,8.43-0.413
	C236.151,813.631,235.811,810.22,233.708,808.12L233.708,808.12z M231.47,811.599c0.395,0.395,0.395,1.034,0,1.429l-0.9,0.899
	c-0.396,0.395-1.036,0.395-1.431,0l-7.974-8.032c-0.636-0.64-1.604-0.752-2.41-0.347c-3.678,1.85-8.292,1.244-11.369-1.829
	c-1.915-1.912-2.92-4.49-2.881-7.1l4.922,4.916c0.256,0.255,0.628,0.354,0.978,0.261l5.904-1.58
	c0.699-0.187,1.244-0.731,1.431-1.429l1.582-5.896c0.094-0.349-0.006-0.721-0.262-0.976l-4.923-4.916
	c2.615-0.038,5.196,0.965,7.111,2.877c3.07,3.066,3.683,7.661,1.846,11.33c-0.395,0.788-0.269,1.733,0.353,2.356L231.47,811.599
	L231.47,811.599z"/>
<path id="Icon_2_" fill="#1D1D1B" d="M395.89,790.354l0.11-6.34c0.01-0.564-0.453-1.024-1.02-1.014l-6.366,0.115
	c-0.883,0.016-1.315,1.08-0.69,1.701l0.944,0.94c0.395,0.392,0.391,1.03-0.008,1.418l-5.387,5.235
	c-0.326,0.316-0.823,0.353-1.21,0.113c-3.228-1.994-7.225-2.563-11.21-1.319c-0.626,0.195-1.233,0.45-1.811,0.757
	c-9.709,5.162-9.656,18.639,0.159,23.71c0.585,0.301,1.199,0.549,1.83,0.735c4.983,1.47,10.001,0.157,13.454-3.28
	c4.561-4.538,5.096-11.577,1.627-16.716c-0.267-0.396-0.233-0.918,0.11-1.251l5.31-5.16c0.392-0.381,1.019-0.378,1.408,0.008
	l1.04,1.035C394.805,791.663,395.874,791.233,395.89,790.354L395.89,790.354z M381.801,810.182c-1.731,1.721-4.031,2.67-6.478,2.67
	s-4.748-0.949-6.478-2.67c-3.572-3.555-3.572-9.338,0-12.893c1.73-1.722,4.031-2.67,6.478-2.67s4.747,0.948,6.478,2.67
	C385.372,800.844,385.372,806.627,381.801,810.182L381.801,810.182z"/>
<path id="Icon_3_" fill="#1D1D1B" d="M477.671,787.899c-3.204-3.263-7.778-4.623-12.399-3.525c-1.225,0.291-2.408,0.78-3.483,1.446
	c-4.103,2.544-6.435,6.836-6.435,11.493c0,2.671,0.777,5.216,2.207,7.384c0.273,0.415,0.239,0.964-0.112,1.314l-1.96,1.949
	c-0.393,0.39-1.021,0.382-1.404-0.017l-2.461-2.569c-0.383-0.4-1.011-0.407-1.403-0.018l-1.422,1.412
	c-0.392,0.39-0.4,1.03-0.017,1.43l2.463,2.57c0.383,0.4,0.375,1.039-0.017,1.429l-2.025,2.015c-0.393,0.39-0.4,1.03-0.017,1.429
	l1.387,1.446c0.383,0.4,1.012,0.407,1.404,0.017l2.023-2.012c0.392-0.39,1.021-0.382,1.404,0.017l2.477,2.586
	c0.383,0.4,1.011,0.408,1.404,0.018l1.421-1.412c0.392-0.39,0.4-1.03,0.017-1.43l-3.172-3.311l2.803-2.787
	c0.333-0.332,0.84-0.369,1.236-0.12c2.037,1.281,4.383,1.974,6.837,1.974c4.575,0,8.792-2.378,11.288-6.559
	c0.654-1.095,1.134-2.299,1.419-3.548C482.21,795.815,480.873,791.16,477.671,787.899L477.671,787.899z M474.863,803.868
	c-1.719,1.751-4.005,2.715-6.436,2.715s-4.717-0.964-6.436-2.715c-1.72-1.751-2.666-4.079-2.666-6.555s0.946-4.804,2.666-6.555
	c1.719-1.751,4.005-2.715,6.436-2.715s4.717,0.964,6.436,2.715c1.72,1.751,2.667,4.079,2.667,6.555S476.583,802.117,474.863,803.868
	L474.863,803.868z"/>
<path id="Icon_4_" fill="#1D1D1B" d="M540.395,786.898l-0.93,0.907c-0.394,0.384-0.394,1.007,0,1.391l1.427,1.391
	c0.394,0.384,1.034,0.384,1.428,0l0.994-0.969c2.05-1.997,5.377-2.328,7.616-0.534c2.568,2.058,2.704,5.78,0.411,8.015l-6.552,6.386
	c-2.097,2.044-5.526,2.332-7.757,0.428c-0.337-0.287-0.63-0.605-0.881-0.95c-0.363-0.5-1.076-0.601-1.52-0.168l-1.465,1.427
	c-0.361,0.352-0.394,0.91-0.085,1.306c0.805,1.03,1.836,1.912,3.168,2.552c3.891,1.871,8.603,0.908,11.671-2.082l6.276-6.116
	c3.892-3.794,3.732-10.065-0.48-13.655C549.875,782.954,544.003,783.382,540.395,786.898z M544.609,797.284l1.424-1.388
	c0.395-0.385,0.399-1.013,0.003-1.397c-1.326-1.283-3.067-2.225-5.4-2.493c-3.169-0.365-6.323,0.819-8.579,3.018l-6.253,6.094
	c-3.892,3.794-3.732,10.064,0.48,13.654c3.841,3.274,9.713,2.846,13.321-0.67l0.93-0.907c0.394-0.384,0.394-1.007,0-1.391
	l-1.427-1.391c-0.394-0.384-1.033-0.384-1.428,0l-1.169,1.14c-2.294,2.235-6.113,2.102-8.225-0.401
	c-1.84-2.182-1.501-5.425,0.549-7.422l6.403-6.241c1.851-1.804,4.773-2.293,6.992-0.938c0.344,0.21,0.657,0.45,0.938,0.716
	C543.574,797.651,544.208,797.674,544.609,797.284z"/>
<path id="Icon_5_" fill="#1D1D1B" d="M611.3,809.092c-0.445,0.876,0.173,1.908,1.16,1.908c0.384,0,0.746-0.166,0.997-0.455
	c1.406-1.621,6.013-7.28,6.495-12.261c0.03-0.27,0.048-0.545,0.048-0.824c0-0.226-0.013-0.428-0.032-0.618
	c-0.342-4.153-4.099-7.344-8.477-6.776c-3.354,0.435-6.059,3.176-6.441,6.519c-0.47,4.112,2.423,7.651,6.293,8.247
	c0.6,0.093,0.989,0.672,0.822,1.252L611.3,809.092z M630.3,809.092c-0.445,0.876,0.173,1.908,1.16,1.908
	c0.384,0,0.746-0.166,0.997-0.455c1.406-1.621,6.013-7.28,6.495-12.261c0.03-0.27,0.048-0.545,0.048-0.824
	c0-0.226-0.013-0.428-0.031-0.618c-0.344-4.153-4.1-7.344-8.478-6.776c-3.354,0.435-6.059,3.176-6.441,6.519
	c-0.47,4.112,2.423,7.651,6.294,8.247c0.599,0.093,0.988,0.672,0.821,1.252L630.3,809.092z"/>
<path id="Icon_6_" fill="#1D1D1B" d="M130.028,796.332l3.285,20c0.158,0.963,0.97,1.668,1.922,1.668h14.531
	c0.952,0,1.764-0.705,1.922-1.668l3.284-20c0.201-1.22-0.716-2.332-1.922-2.332h-21.1C130.744,794,129.827,795.112,130.028,796.332
	L130.028,796.332z M147.293,814h-9.585c-0.476,0-0.882-0.352-0.961-0.834l-2.301-14c-0.1-0.61,0.359-1.166,0.962-1.166h14.185
	c0.603,0,1.061,0.556,0.961,1.166l-2.3,14C148.175,813.647,147.769,814,147.293,814z M154,787.207h-8.797c-0.552,0-1-0.424-1-0.948
	v-2.311c0-0.524-0.448-0.948-1-0.948h-2c-0.552,0-1,0.424-1,0.948v2.311c0,0.524-0.448,0.948-1,0.948H131c-0.552,0-1,0.425-1,0.949
	v1.896c0,0.523,0.448,0.948,1,0.948h23c0.552,0,1-0.425,1-0.948v-1.896C155,787.632,154.552,787.207,154,787.207z"/>
<path id="Icon_7_" d="M718.768,792.539c-0.215-3.317-2.973-5.965-6.371-6.068c-0.949-1.711-2.651-2.982-4.625-3.35
	c-0.431-0.081-0.869-0.121-1.302-0.121c-2.535,0-4.777,1.365-5.93,3.474c-3.362,0.138-6.08,2.767-6.299,6.056
	c-2.407,1.924-3.622,4.968-3.135,8.065c0.566,3.595,3.509,6.534,7.154,7.148c0.504,0.085,1.013,0.128,1.517,0.128
	c1.185,0,2.336-0.232,3.426-0.69c0.176,0.064,0.354,0.121,0.534,0.172c0.422,0.121,0.702,0.514,0.702,0.947v7.703
	c0,0.551,0.454,0.997,1.013,0.997h2.026c0.56,0,1.013-0.446,1.013-0.997v-7.699c0-0.432,0.278-0.827,0.7-0.947
	c0.194-0.055,0.387-0.117,0.578-0.187c2.017,0.856,4.299,0.936,6.457,0.194c2.529-0.869,4.541-2.912,5.348-5.427
	C722.706,798.409,721.518,794.743,718.768,792.539L718.768,792.539z M717.705,800.749c-0.509,1.545-1.89,2.72-3.508,3.037
	c-0.999,0.196-1.99,0.09-2.891-0.309c-0.912-0.402-1.961-0.434-2.864-0.079c-1.256,0.494-2.697,0.47-3.96-0.005
	c-0.884-0.333-1.912-0.298-2.8,0.09c-0.909,0.4-1.91,0.501-2.915,0.296c-1.614-0.33-2.985-1.513-3.482-3.06
	c-0.687-2.14,0.193-4.369,2.068-5.476l0.568-0.336c0.345-0.203,0.535-0.589,0.484-0.982l-0.103-0.785
	c-0.009-0.062-0.021-0.124-0.023-0.183c0-1.379,1.14-2.5,2.54-2.5c0.169,0,0.36,0.025,0.586,0.078l0.991,0.233
	c0.547,0.128,1.095-0.206,1.222-0.745l0.23-0.978c0.325-1.384,1.703-2.28,3.169-2.005c1.001,0.187,1.855,1.01,2.075,2.001
	l0.224,1.006c0.123,0.55,0.684,0.891,1.238,0.753l1.014-0.252c0.249-0.063,0.447-0.091,0.622-0.091c1.401,0,2.54,1.121,2.54,2.495
	c-0.001,0.063-0.013,0.123-0.022,0.184l-0.103,0.794c-0.051,0.392,0.138,0.777,0.482,0.981l0.565,0.335
	C717.533,796.361,718.41,798.604,717.705,800.749L717.705,800.749z"/>
<path id="Icon_8_" fill="#1D1D1B" d="M84,796.209v16.819c0,0.549-0.448,0.994-1,0.994H59c-0.55,0-1-0.447-1-0.994v-16.789
	c0-0.356,0.442-0.685,0.752-0.862l12.091-6.834c0.307-0.175,0.747-0.176,1.055-0.002l11.815,6.804
	C84.026,795.521,84,795.852,84,796.209L84,796.209z M55.256,792.785C54.634,793.139,54,793.798,54,794.51v20.507
	c0,1.641,1.35,2.983,3,2.983h28c1.65,0,3-1.342,3-2.983v-20.504c0-0.714-0.135-1.374-0.76-1.727l-14.914-8.525
	c-0.615-0.349-1.432-0.348-2.047,0.002L55.256,792.785z M75,802h-2c-0.552,0-1-0.448-1-1v-2c0-0.552,0.448-1,1-1h2
	c0.552,0,1,0.448,1,1v2C76,801.552,75.552,802,75,802z M75,808h-2c-0.552,0-1-0.448-1-1v-2c0-0.552,0.448-1,1-1h2
	c0.552,0,1,0.448,1,1v2C76,807.552,75.552,808,75,808z M69,802h-2c-0.552,0-1-0.448-1-1v-2c0-0.552,0.448-1,1-1h2
	c0.552,0,1,0.448,1,1v2C70,801.552,69.552,802,69,802z M69,808h-2c-0.552,0-1-0.448-1-1v-2c0-0.552,0.448-1,1-1h2
	c0.552,0,1,0.448,1,1v2C70,807.552,69.552,808,69,808z"/>
<path id="Icon_9_" fill="#1D1D1B" d="M723.739,715.21l-9.236-9.886c-0.62-0.664-1.76-0.24-1.76,0.655v3.482
	c0,0.322-0.252,0.587-0.584,0.623c-10.164,1.112-18.86,7.866-22.057,17.445c-0.628,1.882,1.788,3.311,3.226,1.903l0.064-0.063
	c4.937-4.832,11.669-7.551,18.693-7.551c0.363,0,0.658,0.285,0.658,0.636v3.297c0,0.895,1.14,1.319,1.76,0.655l9.236-9.886
	C724.087,716.148,724.087,715.582,723.739,715.21"/>
<path id="Icon_10_" fill="#1D1D1B" d="M621.986,726.339h-1.449c-0.559,0-1.013-0.444-1.013-0.99v-11.053
	c0-0.546-0.453-0.989-1.012-0.989h-2.024c-0.559,0-1.012,0.443-1.012,0.989v11.053c0,0.546-0.454,0.99-1.013,0.99h-1.449
	c-0.806,0-1.288,0.874-0.846,1.533l4.486,6.681c0.4,0.596,1.292,0.596,1.692,0l4.486-6.681
	C623.274,727.213,622.791,726.339,621.986,726.339z M630.832,707.128l-4.486-6.682c-0.4-0.595-1.292-0.595-1.692,0l-4.486,6.682
	c-0.442,0.658,0.041,1.533,0.846,1.533h1.449c0.56,0,1.013,0.444,1.013,0.99v11.053c0,0.546,0.453,0.989,1.012,0.989h2.024
	c0.559,0,1.012-0.443,1.012-0.989v-11.053c0-0.546,0.453-0.99,1.013-0.99h1.449C630.792,708.661,631.274,707.786,630.832,707.128z"
	/>
<path id="Icon_11_" d="M549.484,706.759c-1.876-3.3-5.256-5.44-9.041-5.724c-0.556-0.041-1.128-0.046-1.687-0.015
	c-3.788,0.219-7.204,2.3-9.137,5.567c-2.014,3.404-2.153,7.53-0.396,10.986l7.501,15.844c0.491,0.966,1.48,1.573,2.583,1.582
	c1.101,0.01,2.101-0.579,2.635-1.586l7.723-15.614C551.507,714.325,551.439,710.198,549.484,706.759L549.484,706.759z
	 M546.066,716.03l-6.712,13.572l-6.503-13.735c-1.177-2.317-1.082-5.047,0.252-7.303c1.272-2.151,3.419-3.466,5.89-3.608
	c0.19-0.011,0.38-0.016,0.574-0.014c0.192,0.002,0.383,0.01,0.572,0.024c2.468,0.185,4.592,1.537,5.828,3.71
	C547.262,710.955,547.308,713.686,546.066,716.03z M539.522,710c-1.381-0.012-2.51,1.098-2.522,2.478
	c-0.012,1.381,1.098,2.51,2.479,2.522c1.38,0.012,2.509-1.098,2.521-2.478C542.012,711.141,540.902,710.012,539.522,710z"/>
<path id="Icon_12_" fill="#1D1D1B" d="M465.377,701.034c-0.259-0.02-0.521-0.031-0.784-0.034c-0.264-0.002-0.525,0.005-0.785,0.02
	c-7.57,0.447-12.043,8.769-8.666,15.562l8.274,17.865c0.363,0.729,1.4,0.738,1.775,0.015l8.582-17.719
	C477.267,710.009,472.937,701.611,465.377,701.034L465.377,701.034z M464.462,716.132c-2.475-0.022-4.464-2.046-4.442-4.522
	c0.021-2.477,2.045-4.466,4.519-4.445c2.475,0.021,4.464,2.046,4.442,4.522C468.96,714.163,466.937,716.153,464.462,716.132
	L464.462,716.132z"/>
<path id="Icon_13_" fill="#1D1D1B" d="M389.118,722v11c0,0.552-0.435,1-0.971,1h-23.294c-0.536,0-0.971-0.448-0.971-1v-24
	c0-0.552,0.435-1,0.971-1h7.765c0.536,0,0.97-0.448,0.97-1v-2c0-0.552-0.434-1-0.97-1h-10.677c-1.072,0-1.941,0.895-1.941,2v30
	c0,1.105,0.869,2,1.941,2h29.118c1.072,0,1.941-0.895,1.941-2v-14c0-0.552-0.435-1-0.971-1h-1.941
	C389.552,721,389.118,721.448,389.118,722z M396.853,702.401l-3.26-3.256c-1.527-1.525-4.003-1.527-5.533-0.004l-10.484,10.437
	c-0.369,0.367-0.576,0.865-0.576,1.385v7.059c0,0.544,0.444,0.983,0.988,0.978l7.054-0.063c0.513-0.005,1.004-0.21,1.366-0.573
	l10.445-10.431C398.382,706.405,398.382,703.929,396.853,702.401z M391.516,702.602l1.877,1.874c0.382,0.381,0.382,1.001,0,1.382
	l-8.067,8.057c-0.383,0.382-1.003,0.382-1.385,0l-1.89-1.887c-0.383-0.383-0.382-1.003,0.002-1.384l8.08-8.044
	C390.515,702.22,391.134,702.22,391.516,702.602L391.516,702.602z"/>
<path id="Icon_14_" fill="#1D1D1B" d="M316,705h-6.5v-2c0-0.552-0.448-1-1-1h-2c-0.552,0-1,0.448-1,1v2H283c-0.552,0-1,0.448-1,1v2
	c0,0.552,0.448,1,1,1h22.5v2c0,0.552,0.448,1,1,1h2c0.552,0,1-0.448,1-1v-2h6.5c0.552,0,1-0.448,1-1v-2
	C317,705.448,316.552,705,316,705z M316,716h-25.5v-2c0-0.552-0.448-1-1-1h-2c-0.552,0-1,0.448-1,1v2H283c-0.552,0-1,0.448-1,1v2
	c0,0.552,0.448,1,1,1h3.5v2c0,0.552,0.448,1,1,1h2c0.552,0,1-0.448,1-1v-2H316c0.552,0,1-0.448,1-1v-2
	C317,716.448,316.552,716,316,716z M316,727h-14.5v-2c0-0.552-0.448-1-1-1h-2c-0.552,0-1,0.448-1,1v2H283c-0.552,0-1,0.448-1,1v2
	c0,0.552,0.448,1,1,1h14.5v2c0,0.552,0.448,1,1,1h2c0.552,0,1-0.448,1-1v-2H316c0.552,0,1-0.448,1-1v-2
	C317,727.448,316.552,727,316,727z"/>
<path id="Icon_15_" fill="#1D1D1B" d="M223.897,734.709l-15.314-15.304c-0.777-0.776-0.777-2.034,0-2.81l15.314-15.304
	c0.388-0.388,1.018-0.388,1.406,0l1.406,1.405c0.388,0.388,0.388,1.017,0,1.405l-13.206,13.196c-0.388,0.388-0.388,1.018,0,1.405
	l13.206,13.197c0.388,0.388,0.388,1.017,0,1.405l-1.406,1.405C224.915,735.097,224.285,735.097,223.897,734.709"/>
<path id="Icon_16_" fill="#1D1D1B" d="M159.709,731.878l-9.056-9.123c-0.34-0.342-0.374-0.869-0.111-1.273
	c3.713-5.695,2.847-13.527-2.631-18.205c-5.271-4.5-13.294-4.346-18.401,0.342c-5.862,5.381-6.01,14.54-0.442,20.112
	c4.748,4.752,12.097,5.329,17.494,1.759c0.405-0.268,0.936-0.233,1.278,0.111l9.036,9.104c0.391,0.393,1.025,0.394,1.417,0.002
	l1.414-1.415C160.097,732.902,160.098,732.27,159.709,731.878L159.709,731.878z M131.896,720.9c-3.864-3.867-3.864-10.159,0-14.026
	s10.151-3.868,14.015,0c3.864,3.867,3.864,10.159,0,14.026S135.76,724.767,131.896,720.9L131.896,720.9z"/>
<path id="Icon_17_" fill="#1D1D1B" d="M87,708c0,0.552-0.448,1-1,1H53c-0.552,0-1-0.448-1-1v-2c0-0.552,0.448-1,1-1h33
	c0.552,0,1,0.448,1,1V708z M87,719c0,0.552-0.448,1-1,1H53c-0.552,0-1-0.448-1-1v-2c0-0.552,0.448-1,1-1h33c0.552,0,1,0.448,1,1V719
	z M87,730c0,0.552-0.448,1-1,1H53c-0.552,0-1-0.448-1-1v-2c0-0.552,0.448-1,1-1h33c0.552,0,1,0.448,1,1V730z"/>
<path id="Icon_18_" fill="#1D1D1B" d="M714,632v2c0,0.552,0.448,1,1,1h4c0.552,0,1,0.448,1,1v20c0,0.552-0.448,1-1,1h-25
	c-0.552,0-1-0.448-1-1v-20c0-0.552,0.448-1,1-1h4c0.552,0,1-0.448,1-1v-2c0-0.552-0.448-1-1-1h-7c-1.104,0-2,0.895-2,2v26
	c0,1.105,0.896,2,2,2h31c1.104,0,2-0.895,2-2v-26c0-1.105-0.896-2-2-2h-7C714.448,631,714,631.448,714,632z M711.768,624.755
	l-4.482-5.387c-0.406-0.489-1.166-0.489-1.572,0l-4.482,5.387c-0.543,0.653-0.071,1.634,0.786,1.634h1.433
	c0.561,0,1.016,0.448,1.016,1.001v17.611c0,0.553,0.455,1.001,1.017,1.001h2.032c0.562,0,1.017-0.448,1.017-1.001V627.39
	c0-0.553,0.455-1.001,1.016-1.001h1.433C711.839,626.389,712.311,625.408,711.768,624.755z"/>
<path id="Icon_19_" fill="#1D1D1B" d="M635,639v11c0,0.552-0.448,1-1,1h-24c-0.552,0-1-0.448-1-1v-17c0-0.552,0.448-1,1-1h5
	c0.552,0,1-0.448,1-1v-2c0-0.552-0.448-1-1-1h-8c-1.105,0-2,0.895-2,2v23c0,1.105,0.895,2,2,2h30c1.104,0,2-0.895,2-2v-14
	c0-0.552-0.448-1-1-1h-2C635.448,638,635,638.448,635,639z M636.639,629.687l-5.319-4.457c-0.642-0.539-1.609-0.071-1.609,0.78
	v1.703c0,0.5-0.36,0.91-0.842,0.994c-2.871,0.501-5.498,1.775-7.448,3.829c-3.536,3.725-4.274,8.931-4.419,11.392
	c-0.035,0.582,0.413,1.072,0.983,1.072h1.947c0.517,0,0.945-0.405,0.981-0.933c0.131-1.945,0.725-5.973,3.334-8.722
	c1.119-1.179,2.577-1.993,4.228-2.442c0.623-0.17,1.236,0.321,1.236,0.981v1.04c0,0.851,0.967,1.319,1.609,0.78l5.319-4.457
	C637.12,630.844,637.12,630.09,636.639,629.687z"/>
<path id="Icon_20_" d="M549.143,630.619l-2.228-5.03c-0.337-0.761-1.412-0.792-1.792-0.051l-0.21,0.408
	c-0.233,0.453-0.768,0.642-1.248,0.469c-2.778-1.002-5.757-1.18-8.844-0.341c-5.813,1.578-10.158,6.663-10.747,12.622
	c-0.244,2.466,0.116,4.857,1.059,7.099c0.216,0.515,0.844,0.721,1.347,0.471l1.781-0.885c0.45-0.223,0.68-0.753,0.491-1.217
	c-0.656-1.607-0.901-3.314-0.726-5.071c0.436-4.377,3.662-8.113,7.939-9.24c2.034-0.536,4.006-0.468,5.866,0.103
	c0.489,0.151,0.87,0.298,0.637,0.751c-0.127,0.249-0.297,0.578-0.475,0.925c-0.38,0.74,0.227,1.683,1.045,1.508l5.406-1.158
	C549.058,631.85,549.396,631.191,549.143,630.619z M529.857,650.38l2.228,5.031c0.337,0.761,1.412,0.792,1.793,0.051l0.209-0.408
	c0.233-0.453,0.768-0.642,1.249-0.469c2.777,1.002,5.757,1.18,8.843,0.341c5.813-1.578,10.158-6.663,10.747-12.623
	c0.244-2.465-0.116-4.856-1.059-7.098c-0.216-0.515-0.845-0.721-1.347-0.472l-1.781,0.886c-0.45,0.223-0.68,0.753-0.491,1.217
	c0.656,1.607,0.901,3.314,0.726,5.071c-0.436,4.377-3.661,8.113-7.939,9.24c-2.034,0.536-4.006,0.468-5.866-0.104
	c-0.489-0.15-0.87-0.297-0.637-0.75c0.128-0.249,0.297-0.578,0.475-0.925c0.38-0.741-0.227-1.683-1.045-1.508l-5.406,1.158
	C529.942,649.15,529.603,649.809,529.857,650.38z"/>
<path id="Icon_21_" fill="#1D1D1B" d="M474.891,627.644l-9.51,9.51c-0.39,0.389-1.02,0.389-1.409,0l-9.862-9.862
	c-0.389-0.389-1.02-0.389-1.409,0l-1.409,1.409c-0.389,0.389-0.389,1.019,0,1.409l9.862,9.862c0.389,0.389,0.389,1.019,0,1.409
	l-9.51,9.509c-0.389,0.389-0.389,1.02,0,1.409l1.409,1.409c0.389,0.389,1.02,0.389,1.409,0l9.51-9.51
	c0.389-0.389,1.019-0.389,1.409,0l9.157,9.158c0.389,0.389,1.02,0.389,1.409,0l1.409-1.409c0.389-0.389,0.389-1.02,0-1.409
	l-9.158-9.157c-0.389-0.39-0.389-1.02,0-1.409l9.51-9.51c0.389-0.389,0.389-1.02,0-1.409l-1.409-1.409
	C475.91,627.255,475.28,627.255,474.891,627.644"/>
<path id="Icon_22_" fill="#1D1D1B" d="M395,639h-13.5c-0.552,0-1-0.448-1-1v-14c0-0.552-0.448-1-1-1h-2c-0.552,0-1,0.448-1,1v14
	c0,0.552-0.448,1-1,1H362c-0.552,0-1,0.448-1,1v2c0,0.552,0.448,1,1,1h13.5c0.552,0,1,0.448,1,1v13c0,0.552,0.448,1,1,1h2
	c0.552,0,1-0.448,1-1v-13c0-0.552,0.448-1,1-1H395c0.552,0,1-0.448,1-1v-2C396,639.448,395.552,639,395,639"/>
<path id="Icon_23_" fill="#1D1D1B" d="M316.707,629.703l-1.416-1.411c-0.391-0.39-1.025-0.39-1.416,0L295.608,646.5
	c-0.391,0.39-1.025,0.39-1.416,0l-8.066-8.04c-0.391-0.39-1.026-0.39-1.416,0l-1.417,1.411c-0.391,0.39-0.391,1.022,0,1.412
	l10.166,10.132c0.781,0.779,2.048,0.78,2.831,0.002l20.416-20.301C317.098,630.726,317.098,630.093,316.707,629.703"/>
<path id="Icon_24_" fill="#1D1D1B" d="M229,635h-16c-0.552,0-1-0.448-1-1v-4.005c0-1.654,1.341-2.995,2.995-2.995h5.01
	c1.654,0,2.995,1.341,2.995,2.995v0.989c0,0.553,0.448,1,1,1h2c0.552,0,1-0.447,1-1v-0.989c0-3.863-3.132-6.995-6.995-6.995h-5.01
	c-3.863,0-6.995,3.132-6.995,6.995V634c0,0.552-0.448,1-1,1h-1c-1.104,0-2,0.895-2,2v7.102c0,7.079,6.045,12.858,13.483,12.898
	h0.078C225.1,656.96,231,651.312,231,644.128V637C231,635.895,230.105,635,229,635L229,635z M227,644.128
	c0,4.957-4.163,8.853-9.478,8.872c-5.252-0.019-9.522-4.009-9.522-8.898V640c0-0.552,0.448-1,1-1h17c0.552,0,1,0.448,1,1V644.128z
	 M215.122,645.719l1.419-2.243c0.402-0.635,1.516-0.635,1.918,0l1.42,2.243c0.37,0.584-0.151,1.281-0.959,1.281h-2.84
	C215.272,647,214.751,646.303,215.122,645.719z"/>
<path id="Icon_25_" d="M152,634v-4.005c0-3.863-3.132-6.995-6.995-6.995h-5.01c-3.863,0-6.995,3.132-6.995,6.995V634
	c0,0.552-0.448,1-1,1h-1c-1.105,0-2,0.895-2,2v7.102c0,7.079,6.045,12.858,13.482,12.898h0.079
	C150.1,656.96,156,651.312,156,644.128V637c0-1.105-0.895-2-2-2h-1C152.448,635,152,634.552,152,634L152,634z M137,629.995
	c0-1.654,1.341-2.995,2.995-2.995h5.01c1.654,0,2.995,1.341,2.995,2.995V634c0,0.552-0.448,1-1,1h-9c-0.552,0-1-0.448-1-1V629.995
	L137,629.995z M152,644.128c0,4.957-4.163,8.853-9.478,8.872c-5.252-0.019-9.522-4.009-9.522-8.898V640c0-0.552,0.448-1,1-1h17
	c0.552,0,1,0.448,1,1V644.128z M140.122,645.719l1.419-2.243c0.402-0.635,1.516-0.635,1.918,0l1.42,2.243
	c0.37,0.585-0.151,1.281-0.959,1.281h-2.84C140.272,647,139.751,646.304,140.122,645.719z"/>
<path id="Icon_26_" fill="#1D1D1B" d="M70,657c-9.374,0-17-7.626-17-17s7.626-17,17-17s17,7.626,17,17S79.374,657,70,657L70,657z
	 M70,627.04c-7.146,0-12.96,5.813-12.96,12.96s5.814,12.96,12.96,12.96s12.96-5.813,12.96-12.96S77.146,627.04,70,627.04z
	 M76.04,643h-7.12c-1.06,0-1.92-0.895-1.92-2v-9c0-0.552,0.43-1,0.96-1h1.92c0.53,0,0.96,0.448,0.96,1v6c0,0.552,0.43,1,0.96,1h4.24
	c0.53,0,0.96,0.448,0.96,1v2C77,642.552,76.57,643,76.04,643z"/>
<path id="Icon_27_" fill="#1D1D1B" d="M714,580h-22c-1.104,0-2-0.896-2-2v-30c0-1.105,0.896-2,2-2h22c0.552,0,1,0.448,1,1v2
	c0,0.552-0.448,1-1,1h-19c-0.552,0-1,0.448-1,1v24c0,0.552,0.448,1,1,1h19c0.552,0,1,0.448,1,1v2C715,579.552,714.552,580,714,580z
	 M714.25,561.004h-15.507c-0.552,0-1,0.448-1,1v2c0,0.552,0.448,1,1,1h15.507c0.552,0,1,0.448,1,1v1.432
	c0,0.796,0.883,1.273,1.548,0.836l6.751-4.432c0.602-0.395,0.602-1.277,0-1.672l-6.751-4.432c-0.665-0.437-1.548,0.04-1.548,0.836
	v1.432C715.25,560.556,714.802,561.004,714.25,561.004z"/>
<path id="Icon_28_" fill="#1D1D1B" d="M626.704,561.422c0.727,4.537-3.047,8.403-7.477,7.66c-2.681-0.451-4.845-2.667-5.284-5.415
	c-0.726-4.536,3.048-8.402,7.477-7.658C624.101,556.46,626.265,558.675,626.704,561.422z M631.602,577.351l-0.033-0.125
	c-0.815-3.029-2.382-5.757-4.501-7.972c-0.257-0.269-0.694-0.259-0.947,0.013c-1.719,1.849-4.317,2.877-7.135,2.417
	c-1.745-0.285-3.306-1.166-4.468-2.418c-0.251-0.271-0.687-0.274-0.942-0.008c-2.118,2.215-3.683,4.941-4.498,7.968l-0.032,0.125
	c-0.225,0.832,0.406,1.649,1.272,1.649h20.012C631.196,579,631.826,578.183,631.602,577.351z M634.019,550.029h-1.962
	c-0.542,0-0.981-0.461-0.981-1.029v-1.971c0-0.568-0.44-1.029-0.981-1.029h-1.962c-0.542,0-0.981,0.461-0.981,1.029V549
	c0,0.568-0.44,1.029-0.981,1.029h-1.962c-0.542,0-0.981,0.46-0.981,1.028v2.057c0,0.568,0.44,1.029,0.981,1.029h1.962
	c0.542,0,0.981,0.46,0.981,1.028v1.8c0,0.568,0.44,1.029,0.981,1.029h1.962c0.542,0,0.981-0.461,0.981-1.029v-1.8
	c0-0.568,0.44-1.028,0.981-1.028h1.962c0.542,0,0.981-0.461,0.981-1.029v-2.057C635,550.489,634.56,550.029,634.019,550.029z"/>
<path id="Icon_29_" fill="#1D1D1B" d="M541.134,556.486c0.744,4.52-3.122,8.372-7.658,7.631c-2.747-0.449-4.963-2.657-5.413-5.394
	c-0.744-4.52,3.122-8.373,7.658-7.631C538.468,551.541,540.683,553.748,541.134,556.486z M546.15,572.357l-0.034-0.124
	c-0.834-3.019-2.439-5.736-4.61-7.944c-0.264-0.268-0.711-0.258-0.97,0.013c-1.761,1.843-4.422,2.866-7.309,2.408
	c-1.786-0.284-3.386-1.162-4.575-2.409c-0.257-0.27-0.704-0.273-0.965-0.008c-2.17,2.207-3.772,4.923-4.607,7.94l-0.033,0.124
	c-0.23,0.829,0.416,1.643,1.303,1.643h20.498C545.734,574,546.38,573.186,546.15,572.357z M556.953,572.357l-0.034-0.124
	c-0.835-3.019-2.439-5.736-4.61-7.944c-0.264-0.268-0.711-0.258-0.97,0.013c-1.31,1.37-3.118,2.285-5.146,2.477
	c1.245,1.927,2.212,4.036,2.833,6.282l0.043,0.156c0.075,0.268,0.074,0.534,0.017,0.783h6.564
	C556.537,574,557.183,573.186,556.953,572.357z M552.021,556.486c-0.451-2.738-2.667-4.945-5.413-5.394
	c-1.15-0.188-2.255-0.077-3.253,0.263c-0.619,0.211-0.868,0.93-0.526,1.483c0.86,1.388,1.358,3.019,1.358,4.767
	c0,1.75-0.499,3.383-1.361,4.772c-0.345,0.555-0.089,1.269,0.532,1.484c0.324,0.113,0.659,0.2,1.004,0.256
	C548.899,564.858,552.765,561.006,552.021,556.486z"/>
<path id="Icon_30_" fill="#1D1D1B" d="M481.93,577.499l-0.052-0.189c-1.259-4.593-3.68-8.728-6.957-12.087
	c-0.397-0.408-1.071-0.394-1.463,0.019c-2.656,2.804-6.671,4.362-11.027,3.664c-2.695-0.432-5.109-1.768-6.903-3.666
	c-0.389-0.41-1.062-0.415-1.457-0.011c-3.273,3.358-5.691,7.491-6.95,12.081l-0.051,0.189c-0.346,1.263,0.629,2.501,1.966,2.501
	h30.928C481.302,580,482.276,578.762,481.93,577.499z M456.452,561.028c1.509,2.046,3.776,3.508,6.354,3.933
	c4.031,0.664,7.699-1.106,9.814-4.071c1.846-0.411,3.436-1.541,4.472-3.108c-0.345-0.149-0.671-0.337-0.973-0.558
	c-1.026-0.752-1.565-1.976-1.679-3.243c-0.018-0.21-0.044-0.421-0.079-0.633c-0.68-4.166-4.023-7.525-8.167-8.208
	c-5.961-0.983-11.139,3.34-11.639,9.015c-0.084,0.955-0.476,1.878-1.156,2.555c-0.597,0.594-1.334,1.038-2.157,1.271
	C452.446,559.682,454.316,560.833,456.452,561.028z"/>
<path id="Icon_31_" fill="#1D1D1B" d="M387.726,551.306c1.118,6.844-4.686,12.677-11.497,11.555
	c-4.123-0.68-7.449-4.023-8.126-8.168c-1.116-6.844,4.687-12.677,11.497-11.554C383.723,543.819,387.05,547.161,387.726,551.306z
	 M375.845,575.079l8.084-5.368c1.515-1.005,3.528,0.094,3.526,1.927c-0.001,1.271,1.02,2.3,2.277,2.3h4.114
	c0.683,0,1.15-0.685,0.927-1.337c-1.329-3.881-3.493-7.388-6.305-10.302c-0.393-0.409-1.052-0.395-1.44,0.02
	c-2.614,2.789-6.563,4.338-10.847,3.644c-2.653-0.43-5.027-1.759-6.793-3.648c-0.382-0.41-1.043-0.414-1.431-0.01
	c-3.22,3.34-5.599,7.453-6.838,12.019l-0.05,0.188c-0.34,1.256,0.618,2.488,1.934,2.488h11.815
	C374.819,576.266,375.162,575.533,375.845,575.079z M387.751,579.524h7.22c0.568,0,1.029-0.453,1.029-1.012v-2.024
	c0-0.559-0.461-1.012-1.029-1.012h-7.22c-1.064,0-1.927-0.849-1.927-1.896v-0.566c0-0.805-0.91-1.288-1.594-0.846l-6.948,4.486
	c-0.619,0.4-0.619,1.292,0,1.692l6.948,4.486c0.684,0.442,1.594-0.041,1.594-0.846v-0.566
	C385.824,580.373,386.687,579.524,387.751,579.524z"/>
<path id="Icon_32_" fill="#1D1D1B" d="M309.361,553.348c1.123,6.878-4.71,12.741-11.555,11.613
	c-4.144-0.683-7.487-4.043-8.167-8.209c-1.122-6.878,4.711-12.741,11.555-11.612C305.338,545.823,308.681,549.182,309.361,553.348z
	 M316.93,577.5l-0.052-0.19c-1.259-4.593-3.68-8.728-6.956-12.087c-0.397-0.408-1.072-0.394-1.463,0.019
	c-2.657,2.804-6.672,4.362-11.027,3.664c-2.697-0.432-5.109-1.767-6.905-3.666c-0.387-0.41-1.061-0.415-1.456-0.011
	c-3.273,3.358-5.691,7.492-6.95,12.081l-0.051,0.19c-0.346,1.262,0.628,2.5,1.966,2.5h30.928
	C316.302,580,317.276,578.762,316.93,577.5z"/>
<path id="Icon_33_" fill="#1D1D1B" d="M228.866,558.794c-1.52-4.015-5.427-6.794-9.818-6.794c-3.63,0-6.95,1.863-8.855,4.863
	c-0.362-0.05-0.726-0.075-1.091-0.075c-4.652,0-8.4,3.942-8.083,8.662c0.288,4.303,4.058,7.55,8.369,7.55H215
	c0.552,0,1-0.448,1-1.001v-2.84c0-0.553-0.448-1.001-1-1.001h-1.432c-0.796,0-1.273-0.884-0.836-1.549l4.432-6.754
	c0.395-0.602,1.277-0.602,1.672,0l4.432,6.754c0.437,0.665-0.04,1.549-0.836,1.549H221c-0.552,0-1,0.448-1,1.001v2.84
	c0,0.553,0.448,1.001,1,1.001h6.603c3.751,0,7.058-2.785,7.371-6.525C235.298,562.61,232.523,559.309,228.866,558.794"/>
<path id="Icon_34_" fill="#1D1D1B" d="M152.865,573h-18.763c-4.468,0-8.102-3.637-8.102-8.106c0-4.47,3.634-8.106,8.102-8.106
	c0.365,0,0.729,0.025,1.091,0.075c1.905-3,5.225-4.863,8.855-4.863c4.391,0,8.298,2.779,9.818,6.794
	c3.462,0.488,6.134,3.472,6.134,7.068C160,569.798,156.799,573,152.865,573L152.865,573z M134.102,560.736
	c-2.429,0-4.377,2.094-4.136,4.573c0.211,2.16,2.152,3.743,4.322,3.743h18.451c1.542,0,2.959-1.04,3.253-2.554
	c0.396-2.036-1.161-3.826-3.127-3.826c-0.103,0-0.204,0.007-0.305,0.016l-0.86,0.078c-0.505,0.046-0.964-0.292-1.069-0.788
	l-0.127-0.597c-0.591-2.79-2.821-5.041-5.652-5.384c-2.935-0.356-5.685,1.266-6.824,3.924l-0.364,0.848
	c-0.209,0.489-0.764,0.728-1.263,0.545l-0.866-0.317C135.063,560.823,134.581,560.736,134.102,560.736L134.102,560.736z"/>
<path id="Icon_35_" fill="#1D1D1B" d="M85,577H55c-1.104,0-2-0.881-2-1.967v-26.066c0-1.086,0.896-1.967,2-1.967h13.073
	c0.618,0,1.201,0.281,1.58,0.761l3.109,3.94c0.19,0.24,0.481,0.381,0.79,0.381H85c1.104,0,2,0.88,2,1.967v20.984
	C87,576.119,86.104,577,85,577L85,577z M58,573.066h24c0.552,0,1-0.441,1-0.984V557c0-0.543-0.448-0.984-1-0.984h-9.917
	c-0.618,0-1.201-0.281-1.58-0.761l-3.109-3.94c-0.189-0.24-0.481-0.381-0.79-0.381H58c-0.552,0-1,0.441-1,0.984v20.164
	C57,572.625,57.448,573.066,58,573.066L58,573.066z"/>
<path id="Icon_36_" fill="#1D1D1B" d="M690,471v22c0,1.104,0.896,2,2,2h30c1.104,0,2-0.896,2-2v-22c0-1.105-0.896-2-2-2h-30
	C690.896,469,690,469.895,690,471L690,471z M707.014,481.589L697.652,473h18.911L707.014,481.589L707.014,481.589z M700.581,481.117
	L694,486.556v-11.477L700.581,481.117L700.581,481.117z M703.557,483.847l3.429,3.147l3.451-3.104l8.603,7.11h-24.138
	L703.557,483.847L703.557,483.847z M713.444,481.185l6.556-5.897v11.316L713.444,481.185L713.444,481.185z"/>
<path id="Icon_37_" fill="#1D1D1B" d="M624.59,465H610c-1.105,0-2,0.895-2,2v30c0,1.104,0.895,2,2,2h24c1.104,0,2-0.896,2-2v-20.591
	c0-0.53-0.211-1.039-0.586-1.414l-9.41-9.409C625.629,465.211,625.12,465,624.59,465L624.59,465z M624,469.238l7.762,7.762H625
	c-0.552,0-1-0.448-1-1V469.238L624,469.238z M612,494v-24c0-0.552,0.448-1,1-1h6c0.552,0,1,0.448,1,1v9c0,1.104,0.895,2,2,2h9
	c0.552,0,1,0.448,1,1v12c0,0.552-0.448,1-1,1h-18C612.448,495,612,494.552,612,494L612,494z"/>
<path id="Icon_38_" fill="#1D1D1B" d="M556,466h-23c-1.104,0-2,0.895-2,2v10h-7c-1.104,0-2,0.895-2,2v16c0,1.104,0.896,2,2,2h23
	c1.104,0,2-0.896,2-2v-6.5h7c1.104,0,2-0.896,2-2V468C558,466.895,557.104,466,556,466L556,466z M544,494h-17c-0.552,0-1-0.448-1-1
	v-8h19v8C545,493.552,544.552,494,544,494L544,494z M549,485.5V480c0-1.105-0.896-2-2-2h-12v-5h19v12.5H549L549,485.5z"/>
<path id="Icon_39_" fill="#1D1D1B" d="M448,489.916c0,2.414,0.939,4.684,2.645,6.39c3.581,3.582,9.311,3.582,12.832,0.059
	l3.282-3.283c0.392-0.392,0.392-1.028,0-1.42l-1.419-1.42c-0.391-0.392-1.027-0.392-1.419,0l-3.164,3.166
	c-1.952,1.953-5.262,2.07-7.214,0.118c-1.167-1.168-1.683-2.676-1.489-4.255c0.141-1.146,0.721-2.195,1.537-3.012l15.674-15.681
	c1.951-1.952,5.161-2.148,7.16-0.245c1.138,1.084,1.699,2.604,1.532,4.19c-0.128,1.203-0.745,2.304-1.601,3.16l-5.871,5.874
	c-0.285,0.284-0.663,0.441-1.065,0.441c-0.467,0-0.901-0.212-1.194-0.589c-0.475-0.612-0.348-1.504,0.2-2.052l3.212-3.214
	c0.392-0.392,0.392-1.028,0-1.42l-1.419-1.419c-0.392-0.392-1.027-0.392-1.419,0l-3.114,3.114c-2.145,2.147-2.359,5.678-0.268,7.877
	c1.16,1.22,2.773,1.838,4.467,1.701c1.364-0.112,2.623-0.784,3.591-1.752l5.656-5.66c1.611-1.611,2.698-3.723,2.848-5.997
	c0.19-2.894-0.968-5.635-3.183-7.518c-3.621-3.077-9.072-2.631-12.431,0.73l-15.721,15.729C448.939,485.234,448,487.504,448,489.916
	"/>
<path id="Icon_40_" fill="#1D1D1B" d="M379,464c-9.374,0-17,6.63-17,14.779c0,3.95,1.794,7.542,4.709,10.196
	c0.204,0.186,0.324,0.442,0.324,0.715v8.063c-0.24,0.873,0.739,1.576,1.509,1.085l6.599-5.319c0.222-0.179,0.509-0.251,0.792-0.206
	c0.995,0.159,2.02,0.245,3.067,0.245c9.374,0,17-6.63,17-14.779C396,470.63,388.374,464,379,464L379,464z M379,489.617
	c-7.168,0-13-4.862-13-10.838c0-5.976,5.832-10.838,13-10.838s13,4.862,13,10.838C392,484.755,386.168,489.617,379,489.617z
	 M375.125,479.066c0,1.088-0.895,1.971-2,1.971s-2-0.883-2-1.971c0-1.088,0.895-1.97,2-1.97S375.125,477.978,375.125,479.066z
	 M381.125,479.066c0,1.088-0.895,1.971-2,1.971s-2-0.883-2-1.971c0-1.088,0.895-1.97,2-1.97S381.125,477.978,381.125,479.066z
	 M387.125,479.066c0,1.088-0.895,1.971-2,1.971s-2-0.883-2-1.971c0-1.088,0.895-1.97,2-1.97S387.125,477.978,387.125,479.066z"/>
<path id="Icon_41_" fill="#1D1D1B" d="M300,467c-9.389,0-17,5.32-17,11.882c0,3.182,1.8,6.065,4.713,8.198v7.658
	c0,0.883,0.763,1.595,1.54,1.098l6.673-5.383c0.02-0.016,0.046-0.019,0.067-0.034c1.287,0.218,2.624,0.346,4.007,0.346
	c9.389,0,17-5.32,17-11.883C317,472.32,309.389,467,300,467L300,467z M293.941,481.031c-1.116,0-2.02-0.893-2.02-1.994
	c0-1.101,0.904-1.994,2.02-1.994c1.115,0,2.019,0.893,2.019,1.994C295.96,480.138,295.056,481.031,293.941,481.031L293.941,481.031z
	 M300,481.031c-1.115,0-2.02-0.893-2.02-1.994c0-1.101,0.905-1.994,2.02-1.994c1.116,0,2.02,0.893,2.02,1.994
	C302.02,480.138,301.116,481.031,300,481.031L300,481.031z M306.059,481.031c-1.115,0-2.019-0.893-2.019-1.994
	c0-1.101,0.904-1.994,2.019-1.994c1.116,0,2.02,0.893,2.02,1.994C308.079,480.138,307.175,481.031,306.059,481.031L306.059,481.031z
	"/>
<path id="Icon_42_" fill="#1D1D1B" d="M218,467c-9.389,0-17,5.32-17,11.882c0,3.182,1.8,6.065,4.713,8.198v7.658
	c0,0.883,0.763,1.595,1.54,1.098l6.673-5.383c0.02-0.016,0.046-0.019,0.067-0.034c1.287,0.218,2.624,0.346,4.007,0.346
	c9.389,0,17-5.32,17-11.883C235,472.32,227.389,467,218,467"/>
<path id="Icon_43_" fill="#1D1D1B" d="M142.752,498c-0.813,0-1.593-0.355-2.14-0.975l-12.55-14.212
	c-2.513-2.603-4.512-7.507-1.674-12.545c1.505-2.672,3.894-4.522,6.555-5.075c2.809-0.581,5.734,0.165,8.031,2.047
	c0.66,0.54,1.242,1.15,1.74,1.816c0.419-0.585,0.9-1.124,1.437-1.605c1.999-1.789,4.559-2.598,7.209-2.29
	c4.321,0.507,7.82,4.056,8.507,8.63c0.497,3.307-0.398,6.276-2.735,9.076l-12.218,14.135c-0.545,0.63-1.327,0.993-2.147,0.998
	H142.752"/>
<path id="Icon_44_" fill="#1D1D1B" d="M69.752,498c-0.813,0-1.593-0.355-2.14-0.975l-12.55-14.212
	c-2.513-2.603-4.512-7.507-1.675-12.545c1.506-2.672,3.895-4.522,6.556-5.075c2.809-0.581,5.734,0.165,8.031,2.047
	c0.66,0.54,1.242,1.15,1.74,1.816c0.419-0.585,0.9-1.124,1.437-1.605c1.999-1.789,4.559-2.598,7.209-2.29
	c4.321,0.507,7.82,4.056,8.507,8.63c0.497,3.307-0.398,6.276-2.735,9.076l-12.218,14.135c-0.545,0.63-1.327,0.993-2.147,0.998
	H69.752L69.752,498z M69.699,475.267c-1.037-0.017-1.901-0.741-2.186-1.745c-0.348-1.22-1.063-2.319-2.076-3.149
	c-1.062-0.87-2.336-1.332-3.615-1.332c-0.356,0-0.714,0.036-1.067,0.11c-1.526,0.316-2.937,1.45-3.871,3.108
	c-2.191,3.892,0.305,6.958,1.122,7.805l10.978,12.431c0.402,0.456,1.111,0.452,1.509-0.008l10.584-12.245
	c1.573-1.884,2.141-3.696,1.818-5.847c-0.411-2.733-2.514-4.929-5.001-5.221c-1.493-0.176-2.942,0.283-4.072,1.296
	c-0.87,0.778-1.493,1.82-1.811,2.993c-0.287,1.057-1.193,1.823-2.283,1.804H69.699L69.699,475.267z"/>
<path id="Icon_45_" fill="#1D1D1B" d="M721,412.75h-1.121c-0.903,0-1.703-0.601-1.931-1.475c-0.467-1.793-0.948-4.423-0.948-7.65
	c0-4.612-1.661-9.98-8.887-11.303c-0.483-0.089-0.845-0.494-0.845-0.985V391c0-0.552-0.447-1-0.999-1h-2.001
	c-0.552,0-0.999,0.448-0.999,1v0.344c0,0.483-0.355,0.883-0.831,0.969c-7.269,1.307-8.938,6.689-8.938,11.312
	c0,3.205-0.485,5.845-0.954,7.649c-0.228,0.874-1.028,1.476-1.931,1.476H689c-0.552,0-1,0.448-1,1v2c0,0.552,0.448,1,1,1h7.73
	c0.474,0,0.89,0.332,0.975,0.798c0.673,3.673,3.687,6.452,7.295,6.452s6.622-2.779,7.295-6.452c0.085-0.466,0.501-0.798,0.975-0.798
	H721c0.552,0,1-0.448,1-1v-2C722,413.198,721.552,412.75,721,412.75L721,412.75z M697.5,403.625c0-5.112,2.334-7.415,7.75-7.606
	c5.416,0.191,7.75,2.494,7.75,7.606c0,3.187,0.421,5.877,0.893,7.895c0.148,0.63-0.324,1.23-0.972,1.23h-15.342
	c-0.648,0-1.119-0.6-0.972-1.23C697.079,409.502,697.5,406.812,697.5,403.625L697.5,403.625z M705,420
	c-1.675,0-3.069-1.402-3.372-3.25h6.744C708.069,418.598,706.675,420,705,420L705,420z"/>
<path id="Icon_46_" d="M618,389h-13c-0.552,0-1,0.448-1,1v13c0,0.552,0.448,1,1,1h13c0.552,0,1-0.448,1-1v-13
	C619,389.448,618.552,389,618,389z M638,389h-13c-0.552,0-1,0.448-1,1v13c0,0.552,0.448,1,1,1h13c0.552,0,1-0.448,1-1v-13
	C639,389.448,638.552,389,638,389z M618,409h-13c-0.552,0-1,0.448-1,1v13c0,0.552,0.448,1,1,1h13c0.552,0,1-0.448,1-1v-13
	C619,409.448,618.552,409,618,409z M638,409h-13c-0.552,0-1,0.448-1,1v13c0,0.552,0.448,1,1,1h13c0.552,0,1-0.448,1-1v-13
	C639,409.448,638.552,409,638,409z"/>
<path id="Icon_47_" fill="#1D1D1B" d="M529.884,399H524c-0.552,0-1-0.448-1-1v-6c0-0.552,0.448-1,1-1h5.884c0.552,0,1,0.448,1,1v6
	C530.884,398.552,530.436,399,529.884,399z M556,399h-18.696c-0.552,0-1-0.448-1-1v-6c0-0.552,0.448-1,1-1H556c0.552,0,1,0.448,1,1
	v6C557,398.552,556.552,399,556,399z M529.884,411H524c-0.552,0-1-0.448-1-1v-6c0-0.552,0.448-1,1-1h5.884c0.552,0,1,0.448,1,1v6
	C530.884,410.552,530.436,411,529.884,411z M556,411h-18.696c-0.552,0-1-0.448-1-1v-6c0-0.552,0.448-1,1-1H556c0.552,0,1,0.448,1,1
	v6C557,410.552,556.552,411,556,411z M529.884,423H524c-0.552,0-1-0.448-1-1v-6c0-0.552,0.448-1,1-1h5.884c0.552,0,1,0.448,1,1v6
	C530.884,422.552,530.436,423,529.884,423z M556,423h-18.696c-0.552,0-1-0.448-1-1v-6c0-0.552,0.448-1,1-1H556c0.552,0,1,0.448,1,1
	v6C557,422.552,556.552,423,556,423z"/>
<path id="Icon_48_" fill="#1D1D1B" d="M455,399h-6c-0.552,0-1-0.448-1-1v-6c0-0.552,0.448-1,1-1h6c0.552,0,1,0.448,1,1v6
	C456,398.552,455.552,399,455,399z M468,399h-6c-0.552,0-1-0.448-1-1v-6c0-0.552,0.448-1,1-1h6c0.552,0,1,0.448,1,1v6
	C469,398.552,468.552,399,468,399z M481,399h-6c-0.552,0-1-0.448-1-1v-6c0-0.552,0.448-1,1-1h6c0.552,0,1,0.448,1,1v6
	C482,398.552,481.552,399,481,399z M455,411h-6c-0.552,0-1-0.448-1-1v-6c0-0.552,0.448-1,1-1h6c0.552,0,1,0.448,1,1v6
	C456,410.552,455.552,411,455,411z M468,411h-6c-0.552,0-1-0.448-1-1v-6c0-0.552,0.448-1,1-1h6c0.552,0,1,0.448,1,1v6
	C469,410.552,468.552,411,468,411z M481,411h-6c-0.552,0-1-0.448-1-1v-6c0-0.552,0.448-1,1-1h6c0.552,0,1,0.448,1,1v6
	C482,410.552,481.552,411,481,411z M455,423h-6c-0.552,0-1-0.448-1-1v-6c0-0.552,0.448-1,1-1h6c0.552,0,1,0.448,1,1v6
	C456,422.552,455.552,423,455,423z M468,423h-6c-0.552,0-1-0.448-1-1v-6c0-0.552,0.448-1,1-1h6c0.552,0,1,0.448,1,1v6
	C469,422.552,468.552,423,468,423z M481,423h-6c-0.552,0-1-0.448-1-1v-6c0-0.552,0.448-1,1-1h6c0.552,0,1,0.448,1,1v6
	C482,422.552,481.552,423,481,423z"/>
<path id="Icon_49_" fill="#1D1D1B" d="M395.411,405.116l-4.381-4.265c-6.644-6.468-17.416-6.468-24.06,0l-4.381,4.265
	c-0.785,0.764-0.785,2.004,0,2.768l4.381,4.265c6.644,6.468,17.416,6.468,24.06,0l4.381-4.265
	C396.196,407.12,396.196,405.88,395.411,405.116L395.411,405.116z M379.012,412.671c-3.314,0-6-2.687-6-6c0-3.313,2.686-6,6-6
	s6,2.687,6,6C385.012,409.984,382.326,412.671,379.012,412.671z M381,407c0,1.104-0.895,2-2,2s-2-0.896-2-2s0.895-2,2-2
	S381,405.896,381,407z"/>
<path id="Icon_50_" fill="#1D1D1B" d="M308.366,396.703l-1.401-1.411c-0.387-0.389-1.015-0.389-1.402,0L287.481,413.5
	c-0.387,0.39-1.015,0.39-1.402,0l-7.985-8.04c-0.387-0.39-1.015-0.39-1.402,0l-1.402,1.411c-0.387,0.39-0.387,1.022,0,1.412
	l10.063,10.132c0.774,0.779,2.028,0.78,2.802,0.002l20.21-20.301C308.753,397.726,308.754,397.093,308.366,396.703z
	 M323.714,396.703l-1.381-1.411c-0.381-0.389-1-0.389-1.381,0L303.134,413.5c-0.382,0.39-1,0.39-1.382,0l-1.429-1.46
	c-0.381-0.39-0.999-0.39-1.38-0.001l-1.383,1.41c-0.383,0.389-0.383,1.022-0.001,1.412l3.478,3.554
	c0.762,0.779,1.998,0.78,2.761,0.002l19.915-20.301C324.095,397.726,324.096,397.093,323.714,396.703z"/>
<path id="Icon_51_" fill="#1D1D1B" d="M224.482,400.293l-7.099,7.199c-0.386,0.391-1.01,0.391-1.395,0l-4.364-4.425
	c-0.376-0.382-0.983-0.392-1.371-0.023l-1.441,1.367c-0.407,0.387-0.417,1.038-0.023,1.438l6.477,6.568
	c0.769,0.78,2.017,0.781,2.787,0.002l9.157-9.265c0.377-0.381,0.388-0.997,0.024-1.391l-1.335-1.447
	C225.518,399.904,224.876,399.893,224.482,400.293"/>
<path id="Icon_52_" fill="#1D1D1B" d="M145.786,404.748c-0.552,0-1-0.448-1-1V398c0-0.552-0.448-1-1-1h-2c-0.552,0-1,0.448-1,1
	v5.748c0,0.552-0.447,1-1,1h-5.288c-0.552,0-1,0.448-1,1v2c0,0.552,0.448,1,1,1h5.288c0.553,0,1,0.448,1,1V415c0,0.552,0.448,1,1,1
	h2c0.552,0,1-0.448,1-1v-5.252c0-0.552,0.448-1,1-1h5.712c0.552,0,1-0.448,1-1v-2c0-0.552-0.448-1-1-1H145.786"/>
<path id="Icon_53_" fill="#1D1D1B" d="M66.485,411.541l-4.304-4.321c-0.396-0.398-0.396-1.042,0-1.44l4.304-4.321
	c0.397-0.398,0.397-1.043,0-1.441l-0.717-0.72c-0.396-0.397-1.039-0.397-1.435,0l-5.739,5.762c-0.792,0.795-0.792,2.085,0,2.88
	l5.739,5.762c0.396,0.397,1.039,0.397,1.435,0l0.717-0.72C66.882,412.584,66.882,411.939,66.485,411.541z M73.515,411.541
	l4.304-4.321c0.396-0.398,0.396-1.042,0-1.44l-4.304-4.321c-0.396-0.398-0.396-1.043,0-1.441l0.717-0.72
	c0.396-0.397,1.039-0.397,1.435,0l5.739,5.762c0.792,0.795,0.792,2.085,0,2.88l-5.739,5.762c-0.396,0.397-1.039,0.397-1.435,0
	l-0.717-0.72C73.119,412.584,73.119,411.939,73.515,411.541z"/>
<path id="Icon_54_" fill="#1D1D1B" d="M705,317.75v15.507c0,0.552,0.448,1,1,1h2c0.552,0,1-0.448,1-1V317.75c0-0.552,0.448-1,1-1
	h1.432c0.796,0,1.273-0.883,0.836-1.548l-4.432-6.751c-0.395-0.601-1.277-0.601-1.672,0l-4.432,6.751
	c-0.437,0.665,0.04,1.548,0.836,1.548H704C704.552,316.75,705,317.198,705,317.75z M717,342h-20c-0.552,0-1-0.448-1-1v-2
	c0-0.552,0.448-1,1-1h20c0.552,0,1,0.448,1,1v2C718,341.552,717.552,342,717,342z"/>
<path id="Icon_55_" fill="#1D1D1B" d="M624,324.506V309c0-0.552-0.448-1-1-1h-2c-0.552,0-1,0.448-1,1v15.506c0,0.552-0.448,1-1,1
	h-1.432c-0.795,0-1.273,0.884-0.836,1.549l4.432,6.75c0.395,0.602,1.277,0.602,1.672,0l4.432-6.75
	c0.437-0.665-0.04-1.549-0.836-1.549H625C624.448,325.506,624,325.058,624,324.506z M632,342h-20c-0.552,0-1-0.448-1-1v-2
	c0-0.552,0.448-1,1-1h20c0.552,0,1,0.448,1,1v2C633,341.552,632.552,342,632,342z"/>
<path id="Icon_56_" fill="#1D1D1B" d="M539.5,326.673c-3.86,0-7-3.055-7-6.809v-5.055c0-3.755,3.14-6.809,7-6.809s7,3.054,7,6.809
	v5.055C546.5,323.618,543.36,326.673,539.5,326.673L539.5,326.673z M539.5,311.938c-1.628,0-2.952,1.287-2.952,2.871v5.055
	c0,1.583,1.324,2.871,2.952,2.871s2.952-1.287,2.952-2.871v-5.055C542.453,313.225,541.128,311.938,539.5,311.938z M552.997,321.415
	c0.047-0.566-0.412-1.054-1-1.054h-2.005c-0.504,0-0.941,0.363-0.988,0.849c-0.444,4.623-4.486,8.256-9.39,8.256h-0.228
	c-4.904,0-8.946-3.632-9.39-8.256c-0.047-0.486-0.483-0.849-0.988-0.849h-2.005c-0.588,0-1.047,0.488-1,1.054
	c0.484,5.778,4.914,10.483,10.675,11.628c0.474,0.094,0.824,0.478,0.824,0.945v2.19c0,0.533-0.447,0.964-0.999,0.964h-3.995
	c-0.552,0-0.999,0.432-0.999,0.964v1.929c0,0.533,0.447,0.964,0.999,0.964h13.984c0.552,0,0.999-0.432,0.999-0.964v-1.929
	c0-0.533-0.447-0.964-0.999-0.964h-3.995c-0.552,0-0.999-0.432-0.999-0.964v-2.19c0-0.467,0.35-0.851,0.824-0.945
	C548.083,331.899,552.513,327.193,552.997,321.415z"/>
<path id="Icon_57_" fill="#1D1D1B" d="M465.61,307.833l3.334,10.815c0.156,0.504,0.604,0.899,1.109,0.899h10.778
	c1.131,0,1.601,1.466,0.684,2.162l-8.713,6.594c-0.41,0.311-0.582,0.851-0.426,1.357l3.331,10.734
	c0.35,1.129-0.882,2.064-1.797,1.366l-8.724-6.656c-0.409-0.312-0.963-0.313-1.372-0.002l-8.724,6.647
	c-0.915,0.697-2.146-0.242-1.796-1.37l3.33-10.731c0.157-0.505-0.015-1.059-0.425-1.37l-8.714-6.569
	c-0.917-0.696-0.447-2.162,0.684-2.162h10.778c0.506,0,0.954-0.395,1.11-0.899l3.333-10.789
	C463.74,306.731,465.261,306.705,465.61,307.833"/>
<path id="Fill-115" fill="#1D1D1B" d="M392.517,321.94l-1.943,0.486c-0.5,0.126-0.848,0.598-0.762,1.096
	c0.284,1.642,0.178,3.368-0.331,5.019c-1.396,4.528-5.647,7.515-10.483,7.514c-6.046-0.001-10.964-4.812-10.964-10.725
	c0-5.914,4.92-10.725,10.966-10.725c0.669,0,1.332,0.067,1.984,0.189c0.654,0.124,1.002,0.836,0.703,1.418l-0.152,0.294
	c-0.382,0.742,0.289,1.586,1.119,1.406l5.271-1.143c0.623-0.135,0.963-0.795,0.702-1.365l-2.203-4.82
	c-0.347-0.759-1.44-0.784-1.821-0.041l-0.124,0.239c-0.223,0.434-0.732,0.629-1.208,0.491c-1.381-0.402-2.821-0.613-4.271-0.613
	c-8.509,0-15.386,6.964-14.983,15.371c0.357,7.463,6.635,13.603,14.266,13.953c8.596,0.393,15.717-6.333,15.717-14.654
	c0-0.871-0.078-1.738-0.233-2.588C393.663,322.169,393.093,321.796,392.517,321.94"/>
<path id="Fill-116" fill="#1D1D1B" d="M306,331c0,0.552-0.448,1-1,1h-12c-0.552,0-1-0.448-1-1v-12c0-0.552,0.448-1,1-1h12
	c0.552,0,1,0.448,1,1V331"/>
<path id="Fill-117" fill="#1D1D1B" d="M209,329c0-0.552-0.448-1-1-1h-2c-0.552,0-1,0.448-1,1v8c0,0.552,0.448,1,1,1h2
	c0.552,0,1-0.448,1-1V329z M216,324c0-0.552-0.448-1-1-1h-2c-0.552,0-1,0.448-1,1v13c0,0.552,0.448,1,1,1h2c0.552,0,1-0.448,1-1V324
	z M223,319c0-0.552-0.448-1-1-1h-2c-0.552,0-1,0.448-1,1v18c0,0.552,0.448,1,1,1h2c0.552,0,1-0.448,1-1V319z M230,312
	c0-0.552-0.448-1-1-1h-2c-0.552,0-1,0.448-1,1v25c0,0.552,0.448,1,1,1h2c0.552,0,1-0.448,1-1V312z"/>
<path id="Fill-121" fill="#1D1D1B" d="M158.998,327.824H158v-3.741c0-3.912-3.129-7.083-6.988-7.083H140c-0.552,0-1,0.454-1,1.014
	v2.027c0,0.56,0.448,1.014,1,1.014h11.011c1.651,0,2.989,1.356,2.989,3.029v3.74h-1.003c-0.799,0-1.276,0.685-0.832,1.359
	l3.001,4.334c0.396,0.601,1.267,0.663,1.663,0.062l3.001-4.427C160.274,328.478,159.798,327.824,158.998,327.824z M132,326.916
	v-3.74h1.003c0.799,0,1.276-0.685,0.832-1.359l-3.001-4.334c-0.396-0.601-1.267-0.663-1.663-0.062l-3.001,4.427
	c-0.444,0.674,0.032,1.328,0.832,1.328H128v3.74c0,3.912,3.129,7.084,6.988,7.084H146c0.552,0,1-0.454,1-1.014v-2.027
	c0-0.56-0.448-1.014-1-1.014h-11.011C133.338,329.945,132,328.589,132,326.916z"/>
<path id="Fill-123" fill="#1D1D1B" d="M55.741,329.179h-1.918c-0.553,0-0.823,0.201-0.823,0.753v1.999
	c0,0.553,0.27,1.262,0.823,1.262h1.918c3.375,0,6.701-1.186,9.478-3.121c0.481-0.336,0.589-1.067,0.223-1.525l-1.254-1.596
	c-0.32-0.401-0.901-0.398-1.323-0.107C60.77,328.286,58.273,329.179,55.741,329.179z M78.503,320.148h1.631
	c0.395,0,0.996,0.229,0.996,0.624v0.23c0,0.799,0.537,1.275,1.202,0.831l4.21-3c0.593-0.396,0.619-1.267,0.026-1.663l-4.249-3
	c-0.666-0.444-1.189,0.032-1.189,0.831v0.343c0,0.395-0.601,0.79-0.996,0.79h-0.202c-3.534,0-6.989,1.11-9.838,3.212
	c-0.47,0.346-0.541,0.982-0.165,1.428l1.291,1.522c0.368,0.437,1.052,0.543,1.464,0.102
	C74.158,320.821,76.343,320.148,78.503,320.148z M86.439,330.167l-4.185-3c-0.665-0.444-1.124,0.032-1.124,0.831v0.22
	c0,0.394-0.695,0.961-1.089,0.961h-0.109c-4.157,0-8.061-2.166-10.442-5.65c-3.128-4.577-8.267-7.395-13.749-7.395h-1.918
	c-0.553,0-0.823,0.372-0.823,0.924v2c0,0.552,0.27,1.09,0.823,1.09h1.918c4.157,0,8.061,2.166,10.441,5.65
	c3.129,4.577,8.268,7.395,13.75,7.395h0.109c0.394,0,1.089,0.058,1.089,0.452v0.354c0,0.798,0.49,1.275,1.155,0.831l4.187-3
	C87.065,331.434,87.033,330.563,86.439,330.167z"/>
<path id="Fill-126" fill="#1D1D1B" d="M689.295,228.72c-0.393,0.394-0.393,1.032,0,1.425l7.037,7.037
	c0.393,0.393,0.393,1.031,0,1.425l-1.02,1.02c-0.567,0.567-0.278,1.537,0.507,1.699l7.968,1.652c0.71,0.148,1.339-0.481,1.192-1.191
	l-1.652-7.968c-0.163-0.785-1.133-1.074-1.7-0.508l-1.02,1.021c-0.394,0.393-1.032,0.393-1.425,0l-7.037-7.037
	c-0.393-0.393-1.032-0.393-1.425,0L689.295,228.72z M709.022,247.213l1.652,7.967c0.162,0.785,1.132,1.075,1.699,0.508l1.02-1.02
	c0.394-0.393,1.032-0.393,1.425,0l7.037,7.037c0.393,0.393,1.031,0.393,1.425,0l1.425-1.425c0.393-0.394,0.393-1.032,0-1.425
	l-7.037-7.037c-0.393-0.393-0.393-1.032,0-1.425l1.02-1.02c0.567-0.567,0.277-1.537-0.507-1.7l-7.968-1.651
	C709.503,245.874,708.875,246.503,709.022,247.213z"/>
<path id="Fill-128" fill="#1D1D1B" d="M620.705,241.28c0.393-0.394,0.393-1.032,0-1.425l-7.037-7.037
	c-0.393-0.393-0.393-1.031,0-1.425l1.02-1.02c0.567-0.567,0.278-1.537-0.508-1.7l-7.967-1.651c-0.71-0.148-1.338,0.481-1.192,1.191
	l1.653,7.967c0.162,0.785,1.132,1.075,1.699,0.508l1.02-1.02c0.394-0.393,1.031-0.393,1.425,0l7.037,7.037
	c0.393,0.393,1.032,0.393,1.425,0L620.705,241.28z M638.979,260.787l-1.652-7.968c-0.163-0.784-1.133-1.074-1.7-0.508l-1.02,1.021
	c-0.394,0.393-1.031,0.393-1.425,0l-7.037-7.037c-0.393-0.393-1.031-0.393-1.425,0l-1.425,1.425c-0.393,0.394-0.393,1.032,0,1.425
	l7.037,7.037c0.394,0.393,0.394,1.031,0,1.425l-1.02,1.02c-0.567,0.567-0.277,1.537,0.508,1.699l7.967,1.652
	C638.497,262.126,639.126,261.497,638.979,260.787z"/>
<path id="Fill-130" fill="#1D1D1B" d="M547.25,242.476H524c-0.552,0-1,0.453-1,1.012v2.024c0,0.559,0.448,1.012,1,1.012h23.25
	c0.552,0,0.999,0.454,0.999,1.013v1.449c0,0.805,0.884,1.288,1.549,0.846l6.751-4.486c0.601-0.4,0.601-1.292,0-1.692l-6.751-4.486
	c-0.665-0.442-1.549,0.041-1.549,0.846v1.449C548.249,242.022,547.802,242.476,547.25,242.476"/>
<path id="Fill-131" fill="#1D1D1B" d="M461.591,237.23l7.052,5.989c0.476,0.404,0.476,1.158,0,1.563l-7.052,5.987
	c-0.636,0.54-1.591,0.071-1.591-0.781v-11.976C460,237.16,460.955,236.69,461.591,237.23"/>
<path id="Fill-132" fill="#1D1D1B" d="M387.627,243.219l-7.365-5.989c-0.665-0.54-1.662-0.07-1.662,0.782v4.859l-6.938-5.641
	c-0.664-0.54-1.662-0.07-1.662,0.782v11.976c0,0.852,0.998,1.321,1.662,0.781l6.938-5.64v4.859c0,0.852,0.997,1.321,1.662,0.781
	l7.365-5.988C388.124,244.377,388.124,243.623,387.627,243.219"/>
<path id="Fill-133" fill="#1D1D1B" d="M308.639,235.959H304c-0.552,0-1,0.448-1,1.002v2.004c0,0.554,0.448,1.002,1,1.002h4.571
	c2.446,0,4.429,1.988,4.429,4.439v2.082c0,2.477-2.022,4.503-4.493,4.503h-17.078c-2.446,0-4.429-1.987-4.429-4.438v-2.215
	c0-2.414,1.952-4.371,4.361-4.371h2.66v1.051c0,0.801,0.676,1.279,1.341,0.834l4.276-3.008c0.592-0.396,0.654-1.269,0.061-1.666
	l-4.368-3.007c-0.665-0.445-1.31,0.032-1.31,0.833v0.955h-2.592c-4.655,0-8.429,3.782-8.429,8.447v2.082
	c0,4.682,3.822,8.512,8.493,8.512h17.078c4.655,0,8.429-3.782,8.429-8.447v-2.215C317,239.71,313.257,235.959,308.639,235.959"/>
<path id="Fill-134" fill="#1D1D1B" d="M207.006,261L207.006,261c-1.657,0-3.006-1.315-3.006-2.932V229.93c0-1.616,1.346-2.93,3-2.93
	h19c1.654,0,3,1.314,3,2.93v28.1c0,1.617-1.349,2.932-3.006,2.932c-0.755,0-1.478-0.279-2.037-0.786l-0.135-0.135l-7.302-8.054
	l-7.477,8.227C208.484,260.721,207.761,261,207.006,261L207.006,261z M208,230.907v24.579l6.477-7.125
	c1.114-1.011,2.97-1.012,4.086,0l0.135,0.135l6.302,6.951v-24.54H208L208,230.907z"/>
<path id="Fill-135" fill="#1D1D1B" d="M144.171,228.171l-12.872,8.71c-0.163,0.111-0.355,0.17-0.552,0.17h-7.759
	c-0.546,0-0.988,0.444-0.988,0.993v11.924c0,0.548,0.442,0.993,0.988,0.993h7.777c0.196,0,0.388,0.059,0.551,0.169l12.855,8.699
	c0.657,0.444,1.54-0.029,1.54-0.824v-30.01C145.711,228.2,144.828,227.727,144.171,228.171z M151.388,250.171l-0.956-1.71
	c-0.228-0.408-0.121-0.908,0.225-1.219c0.795-0.714,1.266-1.746,1.266-2.841c0-1.076-0.457-2.096-1.23-2.808
	c-0.343-0.317-0.444-0.818-0.211-1.224l0.978-1.697c0.291-0.507,0.966-0.648,1.42-0.284c1.796,1.444,2.876,3.661,2.876,6.013
	c0,2.39-1.108,4.629-2.95,6.071C152.347,250.831,151.674,250.682,151.388,250.171z M159.167,244.401c0-3.726-1.848-7.016-4.66-9.003
	c-0.405-0.286-0.505-0.849-0.25-1.276l0.99-1.657c0.29-0.487,0.924-0.608,1.386-0.285c3.84,2.684,6.367,7.154,6.367,12.221
	c0,5.197-2.654,9.774-6.661,12.432c-0.477,0.316-1.117,0.171-1.39-0.335l-0.919-1.705c-0.231-0.429-0.119-0.979,0.283-1.25
	C157.236,251.572,159.167,248.212,159.167,244.401z"/>
<path id="Fill-138" fill="#1D1D1B" d="M72.699,244c0,1.104-0.896,2-2,2c-1.105,0-2-0.896-2-2c0-1.105,0.895-2,2-2
	C71.803,242,72.699,242.895,72.699,244z M67.57,250.045c-0.291,0.531-0.977,0.686-1.445,0.313c-1.876-1.499-3.005-3.829-3.005-6.314
	c0-2.446,1.1-4.752,2.93-6.253c0.463-0.379,0.972-0.548,1.269-0.021l1.241,2.2c0.359,0.638,0.067,0.824-0.282,1.153
	c-0.787,0.742-1.253,1.802-1.253,2.921c0,1.139,0.48,2.213,1.29,2.954c0.353,0.324,0.462,0.844,0.229,1.268L67.57,250.045z
	 M59.905,243.897c0-3.875,1.883-7.296,4.749-9.363c0.412-0.297,0.514-0.883,0.254-1.327l-1.008-1.724
	c-0.296-0.506-0.942-0.632-1.413-0.296c-3.912,2.791-6.487,7.441-6.487,12.71c0,5.405,2.704,10.166,6.787,12.929
	c0.486,0.329,1.138,0.179,1.416-0.348l0.937-1.774c0.235-0.446,0.121-1.017-0.289-1.299
	C61.873,251.355,59.905,247.86,59.905,243.897z M73.958,249.974l-0.974-1.778c-0.233-0.425-0.124-0.945,0.229-1.268
	c0.81-0.742,1.29-1.816,1.29-2.955c0-1.119-0.466-2.179-1.253-2.92c-0.349-0.33-0.453-0.851-0.215-1.273l0.996-1.765
	c0.297-0.527,0.984-0.674,1.447-0.295c1.83,1.501,2.93,3.807,2.93,6.253c0,2.486-1.129,4.815-3.005,6.314
	C74.935,250.66,74.249,250.505,73.958,249.974z M82.095,243.897c0-3.875-1.883-7.296-4.749-9.363
	c-0.412-0.297-0.514-0.883-0.254-1.327l1.008-1.724c0.296-0.506,0.942-0.632,1.413-0.296c3.912,2.791,6.487,7.441,6.487,12.71
	c0,5.405-2.704,10.166-6.787,12.929c-0.486,0.329-1.138,0.179-1.416-0.348l-0.937-1.774c-0.235-0.446-0.121-1.017,0.289-1.299
	C80.127,251.355,82.095,247.86,82.095,243.897z"/>
<path id="Fill-143" fill="#1D1D1B" d="M721.251,145.138l-6.833,2.771V145c0-1.104-0.896-2-2-2h-13.42c-0.553,0-1-0.447-1-1v-1
	c0-0.552,0.447-1,1-1H709c0.552,0,1-0.448,1-1v-2c0-0.552-0.448-1-1-1h-13.003c-1.105,0-2,0.895-2,2v4c0,0.553-0.448,1-1,1h-0.992
	c-1.104,0-2,0.896-2,2v18c0,1.104,0.896,2,2,2h20.414c1.104,0,2-0.896,2-2v-3.03l6.813,2.85c1.318,0.551,2.773-0.417,2.773-1.845
	v-13.984C724.004,145.572,722.567,144.605,721.251,145.138L721.251,145.138z M710.418,160c0,0.552-0.448,1-1,1h-14.412
	c-0.552,0-0.999-0.448-0.999-1v-12c0-0.552,0.447-1,0.999-1h14.412c0.552,0,1,0.448,1,1V160L710.418,160z M720.003,156.416
	c0,0.71-0.72,1.194-1.378,0.926l-3.584-1.461c-0.376-0.153-0.622-0.519-0.622-0.926v-2.044c0-0.41,0.251-0.779,0.633-0.93
	l3.583-1.414c0.657-0.26,1.368,0.224,1.368,0.93V156.416L720.003,156.416z"/>
<path id="Fill-144" fill="#1D1D1B" d="M633,133h-22c-1.104,0-2,0.895-2,2v30c0,1.104,0.896,2,2,2h5.844
	c0.959,0,1.782-0.68,1.964-1.621c0.442-2.29,3.238-3.638,5.573-1.723c0.366,0.3,0.619,0.723,0.708,1.188l0.103,0.535
	c0.182,0.941,1.005,1.621,1.964,1.621H633c1.105,0,2-0.896,2-2v-30C635,133.895,634.105,133,633,133L633,133z M630,163h-0.786
	c-0.375,0-0.703-0.218-0.886-0.545c-1.256-2.239-3.651-3.712-6.328-3.712s-5.072,1.473-6.328,3.712
	c-0.183,0.327-0.511,0.545-0.886,0.545H614c-0.552,0-1-0.448-1-1v-15c0-0.552,0.448-1,1-1s1-0.448,1-1v-2c0-0.552-0.448-1-1-1
	s-1-0.448-1-1v-3c0-0.552,0.448-1,1-1h16c0.552,0,1,0.448,1,1v3c0,0.552-0.448,1-1,1s-1,0.448-1,1v2c0,0.552,0.448,1,1,1
	s1,0.448,1,1v15C631,162.552,630.552,163,630,163z M620,142h-2c-0.552,0-1,0.448-1,1v2c0,0.552,0.448,1,1,1h2c0.552,0,1-0.448,1-1
	v-2C621,142.448,620.552,142,620,142z M626,142h-2c-0.552,0-1,0.448-1,1v2c0,0.552,0.448,1,1,1h2c0.552,0,1-0.448,1-1v-2
	C627,142.448,626.552,142,626,142z"/>
<path id="Fill-147" fill="#1D1D1B" d="M557,162c0,1.105-0.895,2-2,2h-30c-1.104,0-2-0.895-2-2v-22c0-1.105,0.896-2,2-2h30
	c1.105,0,2,0.895,2,2V162L557,162z M553,143c0-0.552-0.448-1-1-1h-24c-0.552,0-1,0.448-1,1v16c0,0.552,0.448,1,1,1h24
	c0.552,0,1-0.448,1-1V143L553,143z M533.681,153.586l4.705-6.269c0.318-0.423,0.91-0.423,1.228,0l4.705,6.269
	c0.424,0.565,0.056,1.414-0.614,1.414h-9.41C533.625,155,533.257,154.151,533.681,153.586z M548,148c0,1.105-0.895,2-2,2
	c-1.104,0-2-0.895-2-2s0.896-2,2-2C547.105,146,548,146.895,548,148z"/>
<path id="Fill-155" fill="#231F1F" d="M472.663,154.992l-20.723,0.009c-0.545,0-0.987-0.448-0.987-1l-0.005-13.993
	c0-0.552,0.442-1,0.986-1l20.723-0.009c0.545,0,0.987,0.447,0.987,0.999l0.005,13.994
	C473.649,154.544,473.208,154.992,472.663,154.992L472.663,154.992z M448.973,135.011c-1.09,0-1.974,0.896-1.973,2l0.007,19.991
	c0,1.104,0.884,1.998,1.974,1.998l26.644-0.011c1.09-0.001,1.973-0.896,1.972-2l-0.006-19.991c-0.001-1.104-0.885-1.998-1.975-1.998
	L448.973,135.011z M482.039,166h-25.662c-0.545,0-0.987-0.448-0.987-1v-2c0-0.552,0.442-1,0.987-1h22.701
	c1.09,0,1.974-0.895,1.974-2v-19c0-0.552,0.442-1,0.987-1h1.974c0.545,0,0.987,0.448,0.987,1v22
	C485,164.657,483.674,166,482.039,166z M457.165,150.762l4.277-5.484c0.288-0.371,0.827-0.371,1.116,0l4.278,5.484
	c0.385,0.495,0.05,1.238-0.559,1.238h-8.554C457.114,152,456.779,151.257,457.165,150.762z M469,144c0,1.105-0.896,2-2,2
	s-2-0.895-2-2s0.896-2,2-2S469,142.895,469,144z"/>
<path id="Fill-159" fill="#1D1D1B" d="M385.947,133.992v6.384h-15.92c-1.12,0-2.027,0.889-2.027,1.984v22.656
	c0,1.096,0.907,1.984,2.027,1.984h17.946c1.12,0,2.027-0.888,2.027-1.984v-31.024c0-0.548-0.454-0.992-1.013-0.992h-2.027
	C386.4,133,385.947,133.444,385.947,133.992L385.947,133.992z M384.933,163.031h-11.866c-0.56,0-1.014-0.444-1.014-0.992v-16.702
	c0-0.548,0.454-0.992,1.014-0.992h11.866c0.56,0,1.014,0.444,1.014,0.992v16.702C385.947,162.587,385.493,163.031,384.933,163.031z
	 M382.052,147h-6.104c-0.523,0-0.948,0.448-0.948,1v2c0,0.552,0.425,1,0.948,1h6.104c0.523,0,0.948-0.448,0.948-1v-2
	C383,147.448,382.575,147,382.052,147z"/>
<path id="Fill-161" fill="#1D1D1B" d="M315,166h-30c-1.105,0-2-0.887-2-1.981v-20.433c0-1.094,0.895-1.982,2-1.982h4.532
	c0.368,0,0.706-0.199,0.88-0.52l2.745-5.043c0.349-0.641,1.025-1.041,1.76-1.041h10.166c0.735,0,1.411,0.4,1.76,1.041l2.745,5.043
	c0.174,0.321,0.512,0.52,0.88,0.52H315c1.105,0,2,0.888,2,1.982v20.433C317,165.113,316.105,166,315,166L315,166z M288,162.037h24
	c0.552,0,1-0.443,1-0.99v-14.489c0-0.547-0.448-0.991-1-0.991h-3.322c-0.735,0-1.411-0.4-1.76-1.041l-2.745-5.043
	c-0.175-0.32-0.513-0.52-0.88-0.52h-6.586c-0.367,0-0.705,0.2-0.88,0.52l-2.745,5.043c-0.349,0.641-1.025,1.041-1.76,1.041H288
	c-0.552,0-1,0.444-1,0.991v14.489C287,161.594,287.448,162.037,288,162.037z M300,149.957c-1.402,0-2.543,1.141-2.543,2.542
	c0,1.403,1.141,2.544,2.543,2.544s2.543-1.141,2.543-2.544C302.543,151.098,301.402,149.957,300,149.957z M300,159
	c-3.584,0-6.5-2.916-6.5-6.501c0-3.584,2.916-6.499,6.5-6.499s6.5,2.915,6.5,6.499C306.5,156.084,303.584,159,300,159z"/>
<path id="Fill-163" fill="#1D1D1B" d="M233.001,149h-5.243l0.117-2.92c0.045-1.135-0.863-2.08-1.998-2.08h-23.876
	c-1.136,0-2.044,0.945-1.999,2.08l1,25c0.043,1.073,0.925,1.92,1.999,1.92h21.875c1.074,0,1.956-0.847,1.999-1.92l0.163-4.08h4.588
	c1.029,0,1.89-0.781,1.991-1.805l1.375-14C235.107,150.019,234.183,149,233.001,149L233.001,149z M222.993,168.04
	c-0.022,0.536-0.463,0.96-1,0.96h-16.109c-0.537,0-0.978-0.424-0.999-0.96l-0.76-19c-0.023-0.568,0.431-1.04,0.999-1.04h17.629
	c0.568,0,1.022,0.472,0.999,1.04L222.993,168.04L222.993,168.04z M229.901,162.098c-0.05,0.512-0.481,0.902-0.995,0.902h-1.708
	l0.4-10h2.094c0.591,0,1.053,0.51,0.995,1.098L229.901,162.098z M206.745,138.184l1.606,1.534c0.394,0.376,1.033,0.376,1.428,0
	l1.426-1.363c0.395-0.376,0.395-0.986,0-1.362l-1.272-1.215c-0.274-0.262-0.277-0.686-0.002-0.947
	c1.068-1.018,1.564-2.437,1.336-3.902c-0.154-0.992-0.698-1.894-1.442-2.604l-1.092-1.043c-0.394-0.376-1.033-0.376-1.427,0
	l-1.427,1.363c-0.394,0.376-0.395,0.986,0,1.362l1.2,1.146c0.179,0.172,0.206,0.371,0.206,0.475c0,0.106-0.027,0.31-0.215,0.483
	C205.194,133.849,204.896,136.419,206.745,138.184z M215.745,138.184l1.606,1.534c0.394,0.376,1.033,0.376,1.428,0l1.426-1.363
	c0.395-0.376,0.395-0.986,0-1.362l-1.272-1.215c-0.274-0.262-0.277-0.686-0.002-0.947c1.068-1.018,1.564-2.437,1.336-3.902
	c-0.154-0.992-0.698-1.894-1.442-2.604l-1.092-1.043c-0.394-0.376-1.033-0.376-1.427,0l-1.427,1.363
	c-0.394,0.376-0.395,0.986,0,1.362l1.2,1.146c0.179,0.172,0.206,0.371,0.206,0.475c0,0.106-0.027,0.31-0.215,0.483
	C214.194,133.849,213.896,136.419,215.745,138.184z"/>
<path id="Fill-166" fill="#1D1D1B" d="M153.896,146.133c-0.871-1.048-1.615-6.636-1.764-11.198c-0.039-1.202-1.112-2.098-2.289-1.91
	l-11.467,1.834c-1.129,0.18-1.873,1.285-1.623,2.412l1.843,8.317c0.346,1.564-0.006,3.201-0.948,4.493
	c-0.706,0.967-1.486,1.791-2.163,2.06c-3.681,1.465-7.277,4.731-6.332,9.505c0.644,3.25,3.219,5.352,6.56,5.353h0.001
	c2.189,0,4.542-0.917,6.807-2.65c5.224-4.001,8.234-4.705,11.344-6.512c2.171-1.261,2.875-2.94,3.083-4.126
	C157.309,151.65,155.745,148.356,153.896,146.133L153.896,146.133z M141.486,138.412c1.262-0.202,5.09-0.814,6.373-1.019
	c0.569-0.091,0.456,0.423,0.502,1.004c0.069,0.879,0.161,1.828,0.285,2.791l-6.718,1.122l-0.62-2.793
	C141.184,138.953,140.922,138.502,141.486,138.412L141.486,138.412z M135.713,162.999c-1.432-0.001-2.408-0.779-2.677-2.137
	c-0.364-1.838,0.815-3.154,2.017-3.992c0.441,0.185,3.517,1.597,3.782,5.155c-1.353,0.779-2.414,0.974-3.121,0.974H135.713
	L135.713,162.999z M151.891,154.369c-2.897,1.683-5.661,2.629-9.365,5.083c-0.702-2.209-2.09-3.854-3.493-4.957
	c2.443-2.124,3.679-5.309,3.518-8.546l6.755-1.128c0.377,1.549,0.876,2.943,1.558,3.885c0.965,1.331,2.333,3.459,2.184,4.31
	C153.015,153.202,152.915,153.774,151.891,154.369L151.891,154.369z"/>
<path id="Fill-167" fill="#1D1D1B" d="M84.928,161.665l-1.023-18.507l-0.02-0.184c-0.482-3.295-3.173-5.843-6.442-6.264V135
	c0-3.308-2.636-6-5.875-6h-3.136c-3.239,0-5.875,2.692-5.875,6v1.711c-3.266,0.423-5.955,2.97-6.436,6.263l-1.049,18.691
	c-0.306,2.282,0.37,4.597,1.863,6.367c1.591,1.886,3.929,2.968,6.413,2.968h13.304c2.484,0,4.822-1.082,6.413-2.968
	C84.558,166.262,85.234,163.947,84.928,161.665L84.928,161.665z M68.432,133.032h3.136c1.063,0,1.927,0.883,1.927,1.968v1.642h-6.99
	V135C66.505,133.915,67.369,133.032,68.432,133.032L68.432,133.032z M63.512,140.674h12.982c1.198,0,2.28,0.587,2.919,1.489
	c0.274,0.386,0.189,0.929-0.146,1.261l-8.694,8.641c-0.386,0.384-1.003,0.38-1.385-0.009l-8.469-8.624
	c-0.327-0.333-0.407-0.868-0.139-1.252C61.217,141.268,62.306,140.674,63.512,140.674L63.512,140.674z M80.075,165.4
	c-0.841,0.996-2.089,1.568-3.423,1.568H63.348c-1.334,0-2.582-0.572-3.423-1.568c-0.775-0.918-1.106-2.068-0.935-3.237l0.659-11.758
	c0.049-0.868,1.079-1.27,1.682-0.656l7.134,7.265c0.764,0.777,1.997,0.785,2.77,0.017l7.437-7.39
	c0.607-0.603,1.626-0.198,1.674,0.665l0.645,11.673l0.019,0.184C81.181,163.332,80.85,164.482,80.075,165.4L80.075,165.4z"/>
<path id="Fill-168" fill="#1D1D1B" d="M721.995,63.712c-5.753,0-8.553-7.341-8.58-7.411c-0.464-1.266-2.06-1.711-3.135-0.874
	l-18.634,14.517c-1.792,1.272-2.25,3.779-0.727,5.675c0.727,0.906,1.885,1.38,3.061,1.38h0.002l28.014-0.02
	c1.107-0.001,2.004-0.881,2.004-1.966v-9.336C724,64.592,723.102,63.712,721.995,63.712L721.995,63.712z M701.046,67.643
	c0.487,1.338,1.272,3.733,1.791,5.419l-8.754,0.006L701.046,67.643L701.046,67.643z M718.987,73.051l-11.965,0.008
	c-0.218-0.774-0.558-1.853-1.064-3.404c-0.901-2.766-1.351-3.97-1.634-4.566l1.47-1.145l0.574,0.665
	c0.359,0.414,0.991,0.465,1.414,0.114l1.529-1.27c0.423-0.351,0.475-0.971,0.117-1.385l-0.494-0.571l1.861-1.449
	c1.395,2.472,4.105,6.098,8.417,7.238c0.45,0.119,0.777,0.499,0.777,0.956v3.826C719.989,72.61,719.541,73.05,718.987,73.051
	L718.987,73.051z"/>
<path id="Fill-169" fill="#1D1D1B" d="M634,66.125c0-4.814-3.01-8.922-7.227-10.541v-5.459c0-0.552-0.444-1.125-0.992-1.125h-5.951
	c-0.549,0-0.992,0.573-0.992,1.125v5.459c-0.944,0.362-1.825,0.848-2.627,1.44l-2.067-2.085c-0.388-0.39-1.103-0.302-1.491,0.089
	l-1.402,1.414c-0.388,0.39-0.3,0.935,0.087,1.326l2.129,2.146c-1.171,1.783-1.857,3.917-1.857,6.211
	c0,4.814,3.01,8.922,7.228,10.541v5.459c0,0.552,0.443,0.875,0.992,0.875h5.951c0.548,0,0.992-0.323,0.992-0.875v-5.459
	C630.99,75.047,634,70.939,634,66.125L634,66.125z M622.805,73.412c-3.985,0-7.227-3.269-7.227-7.287s3.242-7.287,7.227-7.287
	s7.227,3.269,7.227,7.287S626.79,73.412,622.805,73.412z M622.5,64c-1.104,0-2,0.895-2,2c0,1.104,0.896,2,2,2s2-0.896,2-2
	C624.5,64.895,623.604,64,622.5,64z"/>
<path id="Fill-171" fill="#1D1D1B" d="M557,60.089c0-4.439-3.679-8.036-8.217-8.036h-0.797c-0.553,0-1.002,0.438-1.002,0.979v1.959
	c0,0.541,0.449,0.98,1.002,0.98h0.797c2.325,0,4.211,1.844,4.211,4.118v3.681c0,0.654-0.645,1.127-1.284,0.934
	c-0.693-0.21-1.429-0.323-2.191-0.323c-3.333,0-6.16,2.145-7.121,5.096c-0.128,0.394-0.518,0.65-0.941,0.65h-2.908
	c-0.423,0-0.813-0.256-0.941-0.65c-0.961-2.951-3.788-5.096-7.12-5.096c-0.765,0-1.502,0.114-2.197,0.325
	c-0.64,0.193-1.285-0.28-1.285-0.935v-3.735c0-2.274,1.885-4.118,4.21-4.118h0.798c0.553,0,1.002-0.438,1.002-0.979V52.98
	c0-0.541-0.449-0.98-1.002-0.98h-0.798c-4.537,0-8.216,3.598-8.216,8.035v11.556h0.019c-0.001,0.034-0.005,0.066-0.005,0.1
	c0,4.03,3.353,7.309,7.474,7.309c3.044,0,5.663-1.792,6.827-4.351c0.162-0.358,0.505-0.604,0.905-0.604h3.566
	c0.4,0,0.743,0.246,0.905,0.604c1.164,2.559,3.783,4.351,6.828,4.351c4.12,0,7.473-3.279,7.473-7.309
	c0-0.016-0.002-0.031-0.002-0.047H557V60.089L557,60.089z M530.488,75.082c-1.912,0-3.468-1.521-3.468-3.391
	c0-1.871,1.556-3.392,3.468-3.392c1.913,0,3.468,1.521,3.468,3.392C533.956,73.561,532.401,75.082,530.488,75.082L530.488,75.082z
	 M549.519,75.082c-1.913,0-3.469-1.521-3.469-3.391c0-1.871,1.556-3.392,3.469-3.392c1.912,0,3.467,1.521,3.467,3.392
	C552.986,73.561,551.431,75.082,549.519,75.082L549.519,75.082z"/>
<path id="Fill-172" fill="#1D1D1B" d="M476.131,56.471l-7.062,3.744c-1.165-0.783-2.565-1.241-4.07-1.241
	c-1.504,0-2.903,0.458-4.069,1.241l-7.061-3.744c-2.663-1.413-5.869,0.524-5.869,3.547v12.964c0,3.023,3.206,4.96,5.869,3.547
	l7.361-3.902c1.103,0.667,2.39,1.058,3.769,1.058c1.38,0,2.668-0.391,3.772-1.058l7.36,3.902c2.664,1.413,5.869-0.524,5.869-3.547
	V60.018C482,56.995,478.795,55.058,476.131,56.471L476.131,56.471z M453.467,60.796l4.831,2.561
	c-0.403,0.91-0.631,1.915-0.631,2.973c0,1.165,0.278,2.264,0.761,3.244l-4.961,2.631c-0.666,0.353-1.467-0.132-1.467-0.887v-9.635
	C452,60.927,452.801,60.443,453.467,60.796L453.467,60.796z M464.999,69.673c-1.837,0-3.333-1.5-3.333-3.343
	c0-1.844,1.496-3.344,3.333-3.344c1.838,0,3.334,1.5,3.334,3.344C468.333,68.173,466.837,69.673,464.999,69.673L464.999,69.673z
	 M476.533,72.205l-4.961-2.631c0.483-0.98,0.762-2.079,0.762-3.244c0-1.058-0.229-2.063-0.632-2.973l4.831-2.561
	c0.665-0.353,1.467,0.131,1.467,0.887v9.635C478,72.073,477.198,72.558,476.533,72.205L476.533,72.205z"/>
<path id="Fill-173" fill="#1D1D1B" d="M394,52.884h-6V50c0-0.552-0.448-1-1-1h-2c-0.552,0-1,0.448-1,1v2.884h-10V50
	c0-0.552-0.448-1-1-1h-2c-0.552,0-1,0.448-1,1v2.884h-6c-1.105,0-2,0.895-2,2V82c0,1.105,0.895,2,2,2h30c1.105,0,2-0.895,2-2V54.884
	C396,53.779,395.105,52.884,394,52.884L394,52.884z M392,79c0,0.552-0.448,1-1,1h-24c-0.552,0-1-0.448-1-1V57.884
	c0-0.553,0.448-1,1-1h3V59c0,0.552,0.448,1,1,1h2c0.552,0,1-0.448,1-1v-2.116h10V59c0,0.552,0.448,1,1,1h2c0.552,0,1-0.448,1-1
	v-2.116h3c0.552,0,1,0.447,1,1V79z M374,64h-2c-0.552,0-1,0.448-1,1v2c0,0.552,0.448,1,1,1h2c0.552,0,1-0.448,1-1v-2
	C375,64.448,374.552,64,374,64z M380,64h-2c-0.552,0-1,0.448-1,1v2c0,0.552,0.448,1,1,1h2c0.552,0,1-0.448,1-1v-2
	C381,64.448,380.552,64,380,64z M386,64h-2c-0.552,0-1,0.448-1,1v2c0,0.552,0.448,1,1,1h2c0.552,0,1-0.448,1-1v-2
	C387,64.448,386.552,64,386,64z M374,70h-2c-0.552,0-1,0.448-1,1v2c0,0.552,0.448,1,1,1h2c0.552,0,1-0.448,1-1v-2
	C375,70.448,374.552,70,374,70z M380,70h-2c-0.552,0-1,0.448-1,1v2c0,0.552,0.448,1,1,1h2c0.552,0,1-0.448,1-1v-2
	C381,70.448,380.552,70,380,70z M386,70h-2c-0.552,0-1,0.448-1,1v2c0,0.552,0.448,1,1,1h2c0.552,0,1-0.448,1-1v-2
	C387,70.448,386.552,70,386,70z"/>
<path id="Fill-180" d="M316.12,52.572l-2.692-2.692c-1.352-1.352-3.202-2.026-5.136-1.853c-1.565,0.14-3.006,0.915-4.117,2.026
	L285.85,68.378c-0.248,0.248-0.427,0.557-0.517,0.896l-3.263,12.213c-0.397,1.483,0.96,2.839,2.443,2.443l12.212-3.263
	c0.339-0.09,0.648-0.269,0.896-0.517l18.499-18.498C318.627,59.145,318.627,55.079,316.12,52.572L316.12,52.572z M291.871,68.003
	l11.263-11.264l6.127,6.127l-11.264,11.263L291.871,68.003L291.871,68.003z M289.05,70.827l6.122,6.123l-8.354,2.232L289.05,70.827
	L289.05,70.827z M313.297,58.83l-1.214,1.213l-6.126-6.127l1.213-1.213c0.918-0.916,2.517-0.918,3.435,0l2.692,2.692
	C314.243,56.342,314.243,57.882,313.297,58.83L313.297,58.83z"/>
<path id="Fill-181" fill="#1D1D1B" d="M236.007,48h-13.84c-0.521,0-1.022,0.206-1.395,0.574l-15.174,14.979
	c-0.794,0.784-0.798,2.072-0.007,2.86l14.046,14.006c0.779,0.777,2.035,0.774,2.811-0.006l14.967-15.049
	c0.375-0.376,0.585-0.887,0.585-1.42V50.007C238,48.899,237.108,48,236.007,48L236.007,48z M234.014,62.695
	c0,0.266-0.105,0.522-0.292,0.71l-11.987,12.052c-0.388,0.39-1.016,0.392-1.405,0.003l-9.779-9.749
	c-0.395-0.394-0.393-1.038,0.004-1.43l12.136-11.98c0.186-0.184,0.436-0.287,0.697-0.287h9.629c0.551,0,0.997,0.45,0.997,1.004
	V62.695z M224.832,56.462c-1.265,1.273-1.265,3.339,0,4.612c1.265,1.274,3.315,1.274,4.58,0c1.265-1.273,1.265-3.339,0-4.612
	C228.147,55.188,226.097,55.188,224.832,56.462z"/>
<path id="Fill-183" fill="#1D1D1B" d="M123.649,78.572c-1.346,1.22-0.464,3.424,1.371,3.424h35.957c1.835,0,2.717-2.204,1.371-3.424
	l-15.641-14.179c-0.42-0.381-0.432-1.027-0.028-1.423l0.474-0.463c2.988-2.927,2.988-7.688,0-10.615
	c-1.907-1.865-5.397-2.442-8.117-1.336c-2.333,0.945-3.789,2.955-4.104,5.6c-0.07,0.589,0.403,1.111,1.009,1.111h2.03
	c0.5,0,0.917-0.366,0.991-0.851c0.17-1.114,0.704-1.841,1.617-2.211c1.417-0.574,3.121-0.107,3.722,0.48
	c1.415,1.387,1.415,3.643,0,5.029L123.649,78.572L123.649,78.572z M130.167,78.046l12.831-11.632l12.832,11.632H130.167
	L130.167,78.046z"/>
<path id="Icon_58_" fill="#1D1D1B" d="M67.162,80.995c0,1.659-1.358,3.005-3.033,3.005c-1.674,0-3.032-1.346-3.032-3.005
	c0-1.661,1.358-3.006,3.032-3.006C65.804,77.989,67.162,79.334,67.162,80.995z M80.034,80.827c0,1.66-1.358,3.006-3.033,3.006
	s-3.032-1.346-3.032-3.006c0-1.66,1.357-3.005,3.032-3.005S80.034,79.167,80.034,80.827z M79.291,76.048H61.35
	c-1.037,0-1.906-0.778-2.011-1.8l-1.996-19.341c-0.053-0.511-0.487-0.9-1.005-0.9h-3.327c-0.558,0-1.011-0.448-1.011-1.002v-2.003
	C52,50.448,52.453,50,53.011,50h6.064c1.037,0,1.906,0.777,2.012,1.8l0.341,3.311c0.053,0.511,0.488,0.9,1.006,0.9h22.543
	c1.394,0,2.369,1.365,1.907,2.668l-5.686,16.03C80.914,75.511,80.149,76.048,79.291,76.048z M64.088,72.04h13.055
	c0.429,0,0.811-0.268,0.953-0.669l3.554-10.018c0.231-0.652-0.257-1.335-0.954-1.335H63.054c-0.599,0-1.067,0.514-1.006,1.104
	l1.034,10.019C63.135,71.652,63.569,72.04,64.088,72.04L64.088,72.04z"/>
</svg>
